<?xml version="1.0" encoding="utf-8"?>
<!-- Generator: Adobe Illustrator 22.1.0, SVG Export Plug-In . SVG Version: 6.00 Build 0)  -->
<svg version="1.1" id="圖層_1" xmlns="http://www.w3.org/2000/svg" xmlns:xlink="http://www.w3.org/1999/xlink" x="0px" y="0px"
	 viewBox="0 0 303.6 303.6" style="enable-background:new 0 0 303.6 303.6;" xml:space="preserve">
<style type="text/css">
	.st0{fill:#FFFFFF;}
</style>
<g>
	<g>
		<path class="st0" d="M54,75.5v12.7h-9V50.8h14.9c2.9,0,5.4,0.5,7.6,1.6c2.2,1.1,3.9,2.5,5.1,4.5c1.2,1.9,1.8,4.1,1.8,6.6
			c0,3.6-1.3,6.6-3.9,8.7c-2.6,2.2-6.2,3.3-10.7,3.3H54z M54,68.6h5.9c1.7,0,3.1-0.4,4-1.3c0.9-0.9,1.4-2.1,1.4-3.7
			c0-1.7-0.5-3.1-1.4-4.2c-0.9-1-2.2-1.6-3.8-1.6h-6V68.6z"/>
	</g>
	<g>
		<path class="st0" d="M246.6,79.5h-12.3l-2.2,7h-9.6l13.7-37.3h8.5l13.8,37.3h-9.7L246.6,79.5z M236.4,72.5h8l-4-13L236.4,72.5z"/>
	</g>
	<g>
		<path class="st0" d="M54.9,168.8h15.7v6.9H45.9v-37.3h9V168.8z"/>
	</g>
	<g>
		<path class="st0" d="M163.7,159.9h-14.2v8.9h16.7v6.9h-25.7v-37.3h25.8v7h-16.8v7.9h14.2V159.9z"/>
	</g>
	<g>
		<path class="st0" d="M248.5,243.5h-14.2v8.9h16.7v6.9h-25.7v-37.3h25.8v7h-16.8v7.9h14.2V243.5z"/>
	</g>
	<g>
		<path class="st0" d="M169.8,227.6h-11.2V258h-9v-30.4h-11v-7h31.2V227.6z"/>
	</g>
	<g>
		<path class="st0" d="M75.2,227.6H64V258h-9v-30.4H44v-7h31.2V227.6z"/>
	</g>
	<g>
		<polygon class="st0" points="303.6,303.6 41.3,303.6 41.3,288.7 288.7,288.7 288.7,192.5 303.6,192.5 		"/>
	</g>
	<g>
		<polygon class="st0" points="14.9,296.1 0,296.1 0,0 303.6,0 303.6,142.4 262.2,174.4 253.1,162.6 288.7,135 288.7,14.9 
			14.9,14.9 		"/>
	</g>
</g>
</svg>
