<?xml version="1.0" encoding="utf-8"?>
<!-- Generator: Adobe Illustrator 22.1.0, SVG Export Plug-In . SVG Version: 6.00 Build 0)  -->
<svg version="1.1" id="圖層_1" xmlns="http://www.w3.org/2000/svg" xmlns:xlink="http://www.w3.org/1999/xlink" x="0px" y="0px"
	 viewBox="0 0 297.8 297.8" style="enable-background:new 0 0 297.8 297.8;" xml:space="preserve">
<style type="text/css">
	.st0{fill:#040000;}
	.st1{fill:#231815;}
</style>
<g>
	<polygon class="st1" points="239,48.4 234.8,62.1 243.3,62.1 	"/>
	<path class="st1" d="M53.1,56.6c1-0.9,1.4-2.2,1.4-3.9c0-1.8-0.5-3.3-1.5-4.4c-1-1.1-2.3-1.7-4.1-1.7h-6.3v11.4h6.2
		C50.7,57.9,52.1,57.5,53.1,56.6z"/>
	<path class="st1" d="M256,172.3l-7.9-10.2l43.2-33.4V0H0v297.8h22.8v-6.5h268.5V182.1h6.5v-42L256,172.3z M133.8,131.5H161v7.3
		h-17.7v8.3h14.9v7h-14.9v9.4h17.6v7.3h-27.1V131.5z M33.2,39.3h15.7c3,0,5.7,0.6,8,1.7c2.3,1.1,4.1,2.7,5.4,4.7
		c1.3,2,1.9,4.4,1.9,7c0,3.8-1.4,6.9-4.1,9.2c-2.7,2.3-6.5,3.4-11.3,3.4h-6.1v13.4h-9.5V39.3z M60.1,163.6v7.3h-26v-39.4h9.5v32.1
		H60.1z M65,225.6H53.2v32h-9.5v-32H32.1v-7.3H65V225.6z M164.7,225.6h-11.8v32h-9.5v-32h-11.6v-7.3h32.9V225.6z M234.6,37.4h8.9
		L258,76.8h-10.2l-2.3-7.4h-13l-2.3,7.4h-10.1L234.6,37.4z M250.4,227h-17.7v8.3h14.9v7h-14.9v9.4h17.6v7.3h-27.1v-39.4h27.2V227z"
		/>
</g>
</svg>
