<?xml version="1.0" encoding="utf-8"?>
<!-- Generator: Adobe Illustrator 22.1.0, SVG Export Plug-In . SVG Version: 6.00 Build 0)  -->
<svg version="1.1" id="圖層_1" xmlns="http://www.w3.org/2000/svg" xmlns:xlink="http://www.w3.org/1999/xlink" x="0px" y="0px"
	 viewBox="0 0 405.4 563.8" style="enable-background:new 0 0 405.4 563.8;" xml:space="preserve">
<style type="text/css">
	.st0{fill:#FFFFFF;}
</style>
<g>
	<g>
		<polygon class="st0" points="277.3,56.2 272.4,72 282.2,72 		"/>
		<path class="st0" d="M61.6,65.6c1.1-1.1,1.7-2.6,1.7-4.5c0-2.1-0.6-3.8-1.7-5.1c-1.1-1.3-2.7-1.9-4.7-1.9h-7.3v13.2h7.2
			C58.8,67.2,60.4,66.7,61.6,65.6z"/>
		<path class="st0" d="M297,199.9l-9.2-11.9l50.1-38.7V0H0v345.4h26.5v-7.5h311.5V211.2h7.5v-48.8L297,199.9z M155.2,152.6h31.5v8.5
			h-20.5v9.6h17.3v8.2h-17.3v10.9h20.4v8.5h-31.4V152.6z M38.5,45.5h18.2c3.5,0,6.6,0.6,9.3,1.9c2.7,1.3,4.8,3.1,6.2,5.5
			c1.5,2.4,2.2,5.1,2.2,8.1c0,4.5-1.6,8-4.8,10.7c-3.2,2.7-7.6,4-13.1,4h-7v15.5h-11V45.5z M69.7,189.8v8.5H39.5v-45.7h11v37.2H69.7
			z M75.4,261.7H61.7v37.2h-11v-37.2H37.2v-8.5h38.2V261.7z M191,261.7h-13.7v37.2h-11v-37.2h-13.5v-8.5H191V261.7z M272.1,43.4
			h10.3l16.9,45.7h-11.8l-2.7-8.5h-15.1l-2.6,8.5h-11.8L272.1,43.4z M290.4,263.4h-20.5v9.6h17.3v8.2h-17.3V292h20.4v8.5h-31.4
			v-45.7h31.5V263.4z"/>
	</g>
	<g>
		<path class="st0" d="M2,557v-23.3h6.9c2.5,0,4.4,0.5,5.7,1.5s1.9,2.5,1.9,4.5c0,1.2-0.3,2.3-1,3.1c-0.7,0.9-1.5,1.5-2.7,1.9
			c1.4,0.3,2.4,1,3.3,2c0.8,1,1.2,2.2,1.2,3.6c0,2.1-0.7,3.7-2,4.8c-1.3,1.2-3.2,1.7-5.5,1.7H2z M4,544.1h5.4c1.6,0,2.9-0.4,3.8-1.2
			c0.9-0.7,1.3-1.8,1.3-3.2c0-1.5-0.5-2.6-1.4-3.3c-0.9-0.7-2.3-1.1-4.2-1.1H4V544.1z M4,545.8v9.5h5.9c1.7,0,3-0.4,4-1.3
			c1-0.9,1.5-2,1.5-3.6c0-1.4-0.5-2.6-1.4-3.4c-0.9-0.8-2.2-1.3-3.9-1.3H4z"/>
		<path class="st0" d="M28.9,557.3c-1.5,0-2.8-0.4-4-1.1c-1.2-0.7-2.1-1.7-2.8-3c-0.7-1.3-1-2.7-1-4.4v-0.7c0-1.7,0.3-3.2,1-4.5
			c0.6-1.3,1.5-2.4,2.7-3.1c1.2-0.8,2.4-1.1,3.7-1.1c2.1,0,3.8,0.7,5,2.1c1.2,1.4,1.8,3.4,1.8,5.9v1.1H23.1v0.4c0,2,0.6,3.6,1.7,4.9
			c1.1,1.3,2.5,2,4.2,2c1,0,1.9-0.2,2.7-0.6c0.8-0.4,1.5-1,2.1-1.8l1.2,0.9C33.7,556.3,31.6,557.3,28.9,557.3z M28.6,541
			c-1.4,0-2.6,0.5-3.6,1.6c-1,1.1-1.6,2.5-1.8,4.3h10.4v-0.2c-0.1-1.7-0.5-3-1.4-4.1S30,541,28.6,541z"/>
		<path class="st0" d="M42.8,535.2v4.4h3.6v1.6h-3.6v11.5c0,1,0.2,1.7,0.5,2.1c0.3,0.5,0.9,0.7,1.7,0.7c0.3,0,0.8-0.1,1.5-0.2
			l0.1,1.6c-0.5,0.2-1.2,0.3-2,0.3c-1.3,0-2.3-0.4-2.9-1.1c-0.6-0.8-0.9-1.9-0.9-3.4v-11.5h-3.2v-1.6h3.2v-4.4H42.8z"/>
		<path class="st0" d="M54,535.2v4.4h3.6v1.6H54v11.5c0,1,0.2,1.7,0.5,2.1c0.3,0.5,0.9,0.7,1.7,0.7c0.3,0,0.8-0.1,1.5-0.2l0.1,1.6
			c-0.5,0.2-1.2,0.3-2,0.3c-1.3,0-2.3-0.4-2.9-1.1c-0.6-0.8-0.9-1.9-0.9-3.4v-11.5h-3.2v-1.6H52v-4.4H54z"/>
		<path class="st0" d="M68.8,557.3c-1.5,0-2.8-0.4-4-1.1c-1.2-0.7-2.1-1.7-2.8-3c-0.7-1.3-1-2.7-1-4.4v-0.7c0-1.7,0.3-3.2,1-4.5
			c0.6-1.3,1.5-2.4,2.7-3.1c1.2-0.8,2.4-1.1,3.7-1.1c2.1,0,3.8,0.7,5,2.1c1.2,1.4,1.8,3.4,1.8,5.9v1.1H63v0.4c0,2,0.6,3.6,1.7,4.9
			c1.1,1.3,2.5,2,4.2,2c1,0,1.9-0.2,2.7-0.6c0.8-0.4,1.5-1,2.1-1.8l1.2,0.9C73.6,556.3,71.5,557.3,68.8,557.3z M68.5,541
			c-1.4,0-2.6,0.5-3.6,1.6c-1,1.1-1.6,2.5-1.8,4.3h10.4v-0.2c-0.1-1.7-0.5-3-1.4-4.1S69.9,541,68.5,541z"/>
		<path class="st0" d="M87.7,541.3c-0.4-0.1-0.8-0.1-1.3-0.1c-1.2,0-2.2,0.3-3,1c-0.8,0.7-1.4,1.6-1.8,2.9V557h-1.9v-17.3h1.9l0,2.7
			c1-2,2.6-3.1,4.9-3.1c0.5,0,1,0.1,1.3,0.2L87.7,541.3z"/>
		<path class="st0" d="M102.4,555.3h11.5v1.7h-13.5v-23.3h2V555.3z"/>
		<path class="st0" d="M117.8,534.7c0-0.4,0.1-0.7,0.4-0.9s0.6-0.4,1-0.4c0.4,0,0.7,0.1,1,0.4c0.2,0.2,0.4,0.6,0.4,0.9
			c0,0.4-0.1,0.7-0.4,0.9c-0.2,0.2-0.6,0.4-1,0.4c-0.4,0-0.7-0.1-1-0.4C117.9,535.3,117.8,535,117.8,534.7z M120,557h-1.9v-17.3h1.9
			V557z"/>
		<path class="st0" d="M131.3,554.3l5.3-14.7h2L132,557h-1.5l-6.5-17.3h2L131.3,554.3z"/>
		<path class="st0" d="M142.1,534.7c0-0.4,0.1-0.7,0.4-0.9s0.6-0.4,1-0.4s0.7,0.1,1,0.4c0.2,0.2,0.4,0.6,0.4,0.9
			c0,0.4-0.1,0.7-0.4,0.9c-0.2,0.2-0.6,0.4-1,0.4s-0.7-0.1-1-0.4C142.3,535.3,142.1,535,142.1,534.7z M144.4,557h-1.9v-17.3h1.9V557
			z"/>
		<path class="st0" d="M152.1,539.7l0.1,3c0.6-1.1,1.5-1.9,2.4-2.4c1-0.6,2-0.8,3.2-0.8c1.9,0,3.2,0.5,4.1,1.6
			c0.9,1,1.4,2.6,1.4,4.7V557h-1.9v-11.4c0-1.5-0.3-2.7-1-3.5c-0.6-0.8-1.7-1.1-3.1-1.1c-1.2,0-2.2,0.4-3.1,1.1
			c-0.9,0.7-1.6,1.7-2,3V557h-1.9v-17.3H152.1z"/>
		<path class="st0" d="M168.1,548.2c0-2.7,0.6-4.8,1.8-6.4c1.2-1.6,2.8-2.4,4.9-2.4c2.4,0,4.1,0.9,5.4,2.8l0.1-2.5h1.8v16.9
			c0,2.2-0.6,4-1.9,5.3c-1.2,1.3-2.9,1.9-5.1,1.9c-1.2,0-2.4-0.3-3.4-0.8c-1.1-0.5-1.9-1.3-2.6-2.1l1.1-1.2c1.4,1.7,3,2.5,4.8,2.5
			c1.6,0,2.8-0.5,3.7-1.4c0.9-0.9,1.4-2.3,1.4-3.9v-2.2c-1.2,1.7-3,2.6-5.4,2.6c-2,0-3.6-0.8-4.8-2.4c-1.2-1.6-1.8-3.8-1.8-6.5
			V548.2z M170,548.5c0,2.2,0.4,3.9,1.3,5.2c0.9,1.3,2.1,1.9,3.7,1.9c2.4,0,4-1.1,5-3.2v-8c-0.4-1.1-1.1-2-1.9-2.5
			c-0.8-0.6-1.9-0.9-3-0.9c-1.6,0-2.9,0.6-3.8,1.9C170.5,544.2,170,546,170,548.5z"/>
		<path class="st0" d="M211.9,535.4h-8V557h-2v-21.6h-8v-1.7h17.9V535.4z"/>
		<path class="st0" d="M217.8,542.6c0.6-1,1.4-1.8,2.4-2.4c1-0.6,2.1-0.8,3.2-0.8c1.9,0,3.2,0.5,4.1,1.6s1.4,2.6,1.4,4.7V557H227
			v-11.4c0-1.5-0.3-2.7-1-3.5c-0.6-0.8-1.7-1.1-3.1-1.1c-1.2,0-2.2,0.4-3.1,1.1c-0.9,0.7-1.6,1.7-2,3V557h-1.9v-24.5h1.9V542.6z"/>
		<path class="st0" d="M242.5,541.3c-0.4-0.1-0.8-0.1-1.3-0.1c-1.2,0-2.2,0.3-3,1c-0.8,0.7-1.4,1.6-1.8,2.9V557h-1.9v-17.3h1.9
			l0,2.7c1-2,2.6-3.1,4.9-3.1c0.5,0,1,0.1,1.3,0.2L242.5,541.3z"/>
		<path class="st0" d="M244.8,548.1c0-1.7,0.3-3.2,1-4.5c0.6-1.3,1.6-2.4,2.7-3.1c1.2-0.7,2.5-1.1,4-1.1c2.3,0,4.2,0.8,5.6,2.4
			c1.4,1.6,2.1,3.8,2.1,6.4v0.4c0,1.7-0.3,3.2-1,4.5c-0.6,1.3-1.6,2.4-2.7,3.1c-1.2,0.7-2.5,1.1-4,1.1c-2.3,0-4.2-0.8-5.6-2.4
			c-1.4-1.6-2.1-3.8-2.1-6.4V548.1z M246.7,548.6c0,2.1,0.5,3.8,1.6,5.1c1.1,1.3,2.5,2,4.2,2c1.7,0,3.1-0.7,4.2-2
			c1.1-1.3,1.6-3.1,1.6-5.2v-0.4c0-1.3-0.2-2.5-0.7-3.6s-1.2-1.9-2.1-2.6c-0.9-0.6-1.9-0.9-3-0.9c-1.7,0-3.1,0.7-4.2,2
			c-1.1,1.3-1.6,3.1-1.6,5.2V548.6z"/>
		<path class="st0" d="M275.9,554.8c-1.2,1.7-3,2.5-5.5,2.5c-1.8,0-3.2-0.5-4.2-1.6c-1-1.1-1.4-2.7-1.5-4.8v-11.2h1.9v11
			c0,3.3,1.3,4.9,4,4.9c2.8,0,4.5-1.1,5.3-3.4v-12.5h1.9V557h-1.9L275.9,554.8z"/>
		<path class="st0" d="M282.7,548.2c0-2.7,0.6-4.8,1.8-6.4c1.2-1.6,2.8-2.4,4.9-2.4c2.4,0,4.1,0.9,5.4,2.8l0.1-2.5h1.8v16.9
			c0,2.2-0.6,4-1.9,5.3c-1.2,1.3-2.9,1.9-5.1,1.9c-1.2,0-2.4-0.3-3.4-0.8c-1.1-0.5-1.9-1.3-2.6-2.1l1.1-1.2c1.4,1.7,3,2.5,4.8,2.5
			c1.6,0,2.8-0.5,3.7-1.4c0.9-0.9,1.4-2.3,1.4-3.9v-2.2c-1.2,1.7-3,2.6-5.4,2.6c-2,0-3.6-0.8-4.8-2.4c-1.2-1.6-1.8-3.8-1.8-6.5
			V548.2z M284.6,548.5c0,2.2,0.4,3.9,1.3,5.2c0.9,1.3,2.1,1.9,3.7,1.9c2.4,0,4-1.1,5-3.2v-8c-0.4-1.1-1.1-2-1.9-2.5
			c-0.8-0.6-1.9-0.9-3-0.9c-1.6,0-2.9,0.6-3.8,1.9C285,544.2,284.6,546,284.6,548.5z"/>
		<path class="st0" d="M304.1,542.6c0.6-1,1.4-1.8,2.4-2.4c1-0.6,2.1-0.8,3.2-0.8c1.9,0,3.2,0.5,4.1,1.6s1.4,2.6,1.4,4.7V557h-1.9
			v-11.4c0-1.5-0.3-2.7-1-3.5c-0.6-0.8-1.7-1.1-3.1-1.1c-1.2,0-2.2,0.4-3.1,1.1c-0.9,0.7-1.6,1.7-2,3V557h-1.9v-24.5h1.9V542.6z"/>
		<path class="st0" d="M346.4,549.7c-0.3,2.5-1.1,4.3-2.6,5.6c-1.5,1.3-3.5,1.9-5.9,1.9c-1.7,0-3.3-0.4-4.6-1.3
			c-1.3-0.9-2.3-2.1-3.1-3.7c-0.7-1.6-1.1-3.4-1.1-5.4v-3c0-2.1,0.4-3.9,1.1-5.5s1.8-2.8,3.1-3.7c1.4-0.9,2.9-1.3,4.7-1.3
			c2.5,0,4.5,0.7,5.9,2c1.4,1.3,2.3,3.2,2.5,5.6h-2c-0.5-4-2.6-5.9-6.4-5.9c-2.1,0-3.8,0.8-5,2.4c-1.2,1.6-1.9,3.8-1.9,6.5v2.8
			c0,2.7,0.6,4.8,1.8,6.4c1.2,1.6,2.9,2.4,4.9,2.4c2.1,0,3.6-0.5,4.6-1.5c1-1,1.7-2.5,1.9-4.4H346.4z"/>
		<path class="st0" d="M350.3,548.1c0-1.7,0.3-3.2,1-4.5c0.6-1.3,1.6-2.4,2.7-3.1c1.2-0.7,2.5-1.1,4-1.1c2.3,0,4.2,0.8,5.6,2.4
			c1.4,1.6,2.1,3.8,2.1,6.4v0.4c0,1.7-0.3,3.2-1,4.5c-0.6,1.3-1.6,2.4-2.7,3.1c-1.2,0.7-2.5,1.1-4,1.1c-2.3,0-4.2-0.8-5.6-2.4
			c-1.4-1.6-2.1-3.8-2.1-6.4V548.1z M352.2,548.6c0,2.1,0.5,3.8,1.6,5.1c1.1,1.3,2.5,2,4.2,2c1.7,0,3.1-0.7,4.2-2
			c1.1-1.3,1.6-3.1,1.6-5.2v-0.4c0-1.3-0.2-2.5-0.7-3.6s-1.2-1.9-2.1-2.6c-0.9-0.6-1.9-0.9-3-0.9c-1.7,0-3.1,0.7-4.2,2
			c-1.1,1.3-1.6,3.1-1.6,5.2V548.6z"/>
		<path class="st0" d="M372.5,557h-1.9v-24.5h1.9V557z"/>
		<path class="st0" d="M377.3,548.1c0-1.7,0.3-3.2,1-4.5c0.6-1.3,1.6-2.4,2.7-3.1c1.2-0.7,2.5-1.1,4-1.1c2.3,0,4.2,0.8,5.6,2.4
			c1.4,1.6,2.1,3.8,2.1,6.4v0.4c0,1.7-0.3,3.2-1,4.5c-0.6,1.3-1.6,2.4-2.7,3.1c-1.2,0.7-2.5,1.1-4,1.1c-2.3,0-4.2-0.8-5.6-2.4
			c-1.4-1.6-2.1-3.8-2.1-6.4V548.1z M379.2,548.6c0,2.1,0.5,3.8,1.6,5.1c1.1,1.3,2.5,2,4.2,2c1.7,0,3.1-0.7,4.2-2
			c1.1-1.3,1.6-3.1,1.6-5.2v-0.4c0-1.3-0.2-2.5-0.7-3.6c-0.5-1.1-1.2-1.9-2.1-2.6c-0.9-0.6-1.9-0.9-3-0.9c-1.7,0-3.1,0.7-4.2,2
			c-1.1,1.3-1.6,3.1-1.6,5.2V548.6z"/>
		<path class="st0" d="M405.3,541.3c-0.4-0.1-0.8-0.1-1.3-0.1c-1.2,0-2.2,0.3-3,1c-0.8,0.7-1.4,1.6-1.8,2.9V557h-1.9v-17.3h1.9
			l0,2.7c1-2,2.6-3.1,4.9-3.1c0.5,0,1,0.1,1.3,0.2L405.3,541.3z"/>
	</g>
	<g>
		<path class="st0" d="M40.2,393.2h-15v40.7H15.2v-40.7H0.4v-8.2h39.8V393.2z"/>
		<path class="st0" d="M56.1,401.6c2.6-3.1,5.8-4.6,9.7-4.6c7.9,0,11.9,4.6,12,13.7v23.3h-9.7v-23c0-2.1-0.4-3.6-1.3-4.6
			c-0.9-1-2.4-1.5-4.5-1.5c-2.8,0-4.9,1.1-6.2,3.3v25.8h-9.7v-51.5h9.7V401.6z"/>
		<path class="st0" d="M103.2,434.6c-5.3,0-9.7-1.6-13-4.9c-3.3-3.3-5-7.6-5-13.1v-0.9c0-3.6,0.7-6.9,2.1-9.8c1.4-2.9,3.4-5.1,6-6.6
			c2.6-1.6,5.5-2.3,8.8-2.3c5,0,8.9,1.6,11.7,4.7c2.9,3.1,4.3,7.6,4.3,13.3v4H95c0.3,2.4,1.3,4.3,2.8,5.7c1.6,1.4,3.6,2.1,6,2.1
			c3.7,0,6.7-1.4,8.8-4.1l4.8,5.3c-1.5,2.1-3.4,3.7-5.9,4.8C109,434,106.2,434.6,103.2,434.6z M102.1,404.8c-1.9,0-3.5,0.6-4.7,2
			c-1.2,1.3-2,3.2-2.3,5.6h13.5v-0.8c0-2.2-0.6-3.8-1.7-5S104.2,404.8,102.1,404.8z"/>
		<path class="st0" d="M13.5,492v17.2H3.4v-48.9h19.1c3.7,0,6.9,0.7,9.7,2c2.8,1.3,4.9,3.3,6.4,5.7c1.5,2.5,2.2,5.3,2.2,8.4
			c0,4.8-1.6,8.6-4.9,11.3c-3.3,2.8-7.8,4.1-13.6,4.1H13.5z M13.5,483.8h9c2.7,0,4.7-0.6,6.1-1.9c1.4-1.3,2.1-3,2.1-5.4
			c0-2.4-0.7-4.3-2.1-5.8c-1.4-1.5-3.4-2.2-5.8-2.3h-9.2V483.8z"/>
		<path class="st0" d="M69.1,509.2c-0.4-0.9-0.8-2-1-3.3c-2.3,2.6-5.4,3.9-9.2,3.9c-3.6,0-6.5-1-8.8-3.1c-2.3-2.1-3.5-4.7-3.5-7.8
			c0-3.8,1.4-6.8,4.3-8.9c2.9-2.1,7-3.1,12.4-3.1h4.5v-2.1c0-1.7-0.4-3-1.3-4c-0.9-1-2.2-1.5-4.1-1.5c-1.6,0-2.9,0.4-3.8,1.2
			c-0.9,0.8-1.4,1.9-1.4,3.2h-9.7c0-2.1,0.6-4,1.9-5.8c1.3-1.8,3.1-3.2,5.5-4.2c2.4-1,5-1.5,8-1.5c4.5,0,8,1.1,10.7,3.4
			c2.6,2.2,3.9,5.4,3.9,9.5v15.7c0,3.4,0.5,6.1,1.4,7.8v0.6H69.1z M61.1,502.4c1.4,0,2.7-0.3,4-1c1.2-0.6,2.1-1.5,2.7-2.6v-6.2h-3.6
			c-4.9,0-7.4,1.7-7.7,5l0,0.6c0,1.2,0.4,2.2,1.3,3C58.5,502,59.7,502.4,61.1,502.4z"/>
		<path class="st0" d="M96.6,509.2h-9.7v-51.5h9.7V509.2z"/>
		<path class="st0" d="M122.6,509.9c-5.3,0-9.7-1.6-13-4.9c-3.3-3.3-5-7.6-5-13.1V491c0-3.6,0.7-6.9,2.1-9.8c1.4-2.9,3.4-5.1,6-6.6
			c2.6-1.6,5.5-2.3,8.8-2.3c5,0,8.9,1.6,11.7,4.7c2.9,3.1,4.3,7.6,4.3,13.3v4h-23.1c0.3,2.4,1.3,4.3,2.8,5.7c1.6,1.4,3.6,2.1,6,2.1
			c3.7,0,6.7-1.4,8.8-4.1l4.8,5.3c-1.5,2.1-3.4,3.7-5.9,4.8C128.4,509.3,125.7,509.9,122.6,509.9z M121.5,480c-1.9,0-3.5,0.6-4.7,2
			c-1.2,1.3-2,3.2-2.3,5.6H128v-0.8c0-2.2-0.6-3.8-1.7-5C125.2,480.6,123.6,480,121.5,480z"/>
		<path class="st0" d="M156,464v8.9h6.2v7.1H156v18.1c0,1.3,0.3,2.3,0.8,2.9c0.5,0.6,1.5,0.9,3,0.9c1.1,0,2-0.1,2.9-0.2v7.3
			c-1.9,0.6-3.9,0.9-5.9,0.9c-6.8,0-10.3-3.4-10.4-10.3V480h-5.3v-7.1h5.3V464H156z"/>
		<path class="st0" d="M177.4,464v8.9h6.2v7.1h-6.2v18.1c0,1.3,0.3,2.3,0.8,2.9c0.5,0.6,1.5,0.9,3,0.9c1.1,0,2-0.1,2.9-0.2v7.3
			c-1.9,0.6-3.9,0.9-5.9,0.9c-6.8,0-10.3-3.4-10.4-10.3V480h-5.3v-7.1h5.3V464H177.4z"/>
		<path class="st0" d="M207.1,509.9c-5.3,0-9.7-1.6-13-4.9c-3.3-3.3-5-7.6-5-13.1V491c0-3.6,0.7-6.9,2.1-9.8c1.4-2.9,3.4-5.1,6-6.6
			c2.6-1.6,5.5-2.3,8.8-2.3c5,0,8.9,1.6,11.7,4.7c2.9,3.1,4.3,7.6,4.3,13.3v4h-23.1c0.3,2.4,1.3,4.3,2.8,5.7c1.6,1.4,3.6,2.1,6,2.1
			c3.7,0,6.7-1.4,8.8-4.1l4.8,5.3c-1.5,2.1-3.4,3.7-5.9,4.8C212.8,509.3,210.1,509.9,207.1,509.9z M206,480c-1.9,0-3.5,0.6-4.7,2
			c-1.2,1.3-2,3.2-2.3,5.6h13.5v-0.8c0-2.2-0.6-3.8-1.7-5C209.6,480.6,208,480,206,480z"/>
	</g>
</g>
</svg>
