<?xml version="1.0" encoding="utf-8"?>
<!-- Generator: Adobe Illustrator 22.1.0, SVG Export Plug-In . SVG Version: 6.00 Build 0)  -->
<svg version="1.1" id="圖層_1" xmlns="http://www.w3.org/2000/svg" xmlns:xlink="http://www.w3.org/1999/xlink" x="0px" y="0px"
	 viewBox="0 0 690 303.6" style="enable-background:new 0 0 690 303.6;" xml:space="preserve">
<style type="text/css">
	.st0{fill:#FFFFFF;}
</style>
<g>
	<g>
		<g>
			<path class="st0" d="M54,75.5v12.7h-9V50.8h14.9c2.9,0,5.4,0.5,7.6,1.6c2.2,1.1,3.9,2.5,5.1,4.5c1.2,1.9,1.8,4.1,1.8,6.6
				c0,3.6-1.3,6.6-3.9,8.7c-2.6,2.2-6.2,3.3-10.7,3.3H54z M54,68.6h5.9c1.7,0,3.1-0.4,4-1.3c0.9-0.9,1.4-2.1,1.4-3.7
				c0-1.7-0.5-3.1-1.4-4.2c-0.9-1-2.2-1.6-3.8-1.6h-6V68.6z"/>
		</g>
		<g>
			<path class="st0" d="M246.6,79.5h-12.3l-2.2,7h-9.6l13.7-37.3h8.5l13.8,37.3h-9.7L246.6,79.5z M236.4,72.5h8l-4-13L236.4,72.5z"
				/>
		</g>
		<g>
			<path class="st0" d="M54.9,168.8h15.7v6.9H45.9v-37.3h9V168.8z"/>
		</g>
		<g>
			<path class="st0" d="M163.7,159.9h-14.2v8.9h16.7v6.9h-25.7v-37.3h25.8v7h-16.8v7.9h14.2V159.9z"/>
		</g>
		<g>
			<path class="st0" d="M248.5,243.5h-14.2v8.9h16.7v6.9h-25.7v-37.3h25.8v7h-16.8v7.9h14.2V243.5z"/>
		</g>
		<g>
			<path class="st0" d="M169.8,227.6h-11.2V258h-9v-30.4h-11v-7h31.2V227.6z"/>
		</g>
		<g>
			<path class="st0" d="M75.2,227.6H64V258h-9v-30.4H44v-7h31.2V227.6z"/>
		</g>
		<g>
			<polygon class="st0" points="303.6,303.6 41.3,303.6 41.3,288.7 288.7,288.7 288.7,192.5 303.6,192.5 			"/>
		</g>
		<g>
			<polygon class="st0" points="14.9,296.1 0,296.1 0,0 303.6,0 303.6,142.4 262.2,174.4 253.1,162.6 288.7,135 288.7,14.9 
				14.9,14.9 			"/>
		</g>
	</g>
	<g>
		<g>
			<path class="st0" d="M342.5,296v-20h5.9c2.1,0,3.8,0.4,4.9,1.3c1.1,0.9,1.7,2.2,1.7,3.9c0,1-0.3,1.9-0.8,2.7
				c-0.6,0.8-1.3,1.3-2.3,1.6c1.2,0.3,2.1,0.8,2.8,1.7c0.7,0.9,1.1,1.9,1.1,3.1c0,1.8-0.6,3.2-1.7,4.1c-1.1,1-2.7,1.5-4.8,1.5H342.5
				z M344.2,285h4.6c1.4,0,2.5-0.4,3.3-1c0.8-0.6,1.2-1.6,1.2-2.8c0-1.3-0.4-2.2-1.2-2.8c-0.8-0.6-2-0.9-3.6-0.9h-4.2V285z
				 M344.2,286.4v8.2h5.1c1.5,0,2.6-0.4,3.4-1.1c0.9-0.7,1.3-1.8,1.3-3.1c0-1.2-0.4-2.2-1.2-2.9c-0.8-0.7-1.9-1.1-3.4-1.1H344.2z"/>
			<path class="st0" d="M365.8,296.3c-1.3,0-2.4-0.3-3.4-0.9c-1-0.6-1.8-1.5-2.4-2.6c-0.6-1.1-0.9-2.4-0.9-3.7v-0.6
				c0-1.4,0.3-2.7,0.8-3.9c0.6-1.1,1.3-2,2.3-2.7c1-0.7,2.1-1,3.2-1c1.8,0,3.2,0.6,4.3,1.9c1.1,1.2,1.6,2.9,1.6,5.1v0.9h-10.6v0.3
				c0,1.7,0.5,3.1,1.5,4.2c1,1.1,2.2,1.7,3.7,1.7c0.9,0,1.7-0.2,2.3-0.5c0.7-0.3,1.3-0.8,1.8-1.5l1,0.8
				C369.8,295.4,368.1,296.3,365.8,296.3z M365.4,282.3c-1.2,0-2.3,0.5-3.1,1.4c-0.9,0.9-1.4,2.1-1.5,3.7h8.9v-0.2
				c0-1.4-0.5-2.6-1.2-3.5S366.7,282.3,365.4,282.3z"/>
			<path class="st0" d="M377.7,277.3v3.8h3.1v1.3h-3.1v9.9c0,0.8,0.1,1.4,0.4,1.8c0.3,0.4,0.8,0.6,1.5,0.6c0.3,0,0.7,0,1.3-0.1
				l0.1,1.3c-0.4,0.2-1,0.2-1.8,0.2c-1.1,0-1.9-0.3-2.5-1c-0.5-0.7-0.8-1.6-0.8-2.9v-9.9h-2.7v-1.3h2.7v-3.8H377.7z"/>
			<path class="st0" d="M387.3,277.3v3.8h3.1v1.3h-3.1v9.9c0,0.8,0.1,1.4,0.4,1.8c0.3,0.4,0.8,0.6,1.5,0.6c0.3,0,0.7,0,1.3-0.1
				l0.1,1.3c-0.4,0.2-1,0.2-1.8,0.2c-1.1,0-1.9-0.3-2.5-1c-0.5-0.7-0.8-1.6-0.8-2.9v-9.9h-2.7v-1.3h2.7v-3.8H387.3z"/>
			<path class="st0" d="M400.1,296.3c-1.3,0-2.4-0.3-3.4-0.9c-1-0.6-1.8-1.5-2.4-2.6c-0.6-1.1-0.9-2.4-0.9-3.7v-0.6
				c0-1.4,0.3-2.7,0.8-3.9c0.6-1.1,1.3-2,2.3-2.7c1-0.7,2.1-1,3.2-1c1.8,0,3.2,0.6,4.3,1.9c1.1,1.2,1.6,2.9,1.6,5.1v0.9h-10.6v0.3
				c0,1.7,0.5,3.1,1.5,4.2c1,1.1,2.2,1.7,3.7,1.7c0.9,0,1.7-0.2,2.3-0.5c0.7-0.3,1.3-0.8,1.8-1.5l1,0.8
				C404.2,295.4,402.4,296.3,400.1,296.3z M399.8,282.3c-1.2,0-2.3,0.5-3.1,1.4c-0.9,0.9-1.4,2.1-1.5,3.7h8.9v-0.2
				c0-1.4-0.5-2.6-1.2-3.5S401.1,282.3,399.8,282.3z"/>
			<path class="st0" d="M416.4,282.5c-0.3-0.1-0.7-0.1-1.1-0.1c-1,0-1.9,0.3-2.6,0.9c-0.7,0.6-1.2,1.4-1.5,2.5V296h-1.6v-14.9h1.6
				l0,2.4c0.9-1.8,2.3-2.6,4.2-2.6c0.5,0,0.8,0.1,1.1,0.2L416.4,282.5z"/>
			<path class="st0" d="M429,294.6h9.9v1.4h-11.6v-20h1.7V294.6z"/>
			<path class="st0" d="M442.3,276.8c0-0.3,0.1-0.6,0.3-0.8c0.2-0.2,0.5-0.3,0.8-0.3s0.6,0.1,0.8,0.3c0.2,0.2,0.3,0.5,0.3,0.8
				c0,0.3-0.1,0.6-0.3,0.8c-0.2,0.2-0.5,0.3-0.8,0.3s-0.6-0.1-0.8-0.3C442.4,277.4,442.3,277.1,442.3,276.8z M444.2,296h-1.7v-14.9
				h1.7V296z"/>
			<path class="st0" d="M453.9,293.8l4.5-12.6h1.7l-5.6,14.9h-1.3l-5.6-14.9h1.7L453.9,293.8z"/>
			<path class="st0" d="M463.3,276.8c0-0.3,0.1-0.6,0.3-0.8c0.2-0.2,0.5-0.3,0.8-0.3s0.6,0.1,0.8,0.3c0.2,0.2,0.3,0.5,0.3,0.8
				c0,0.3-0.1,0.6-0.3,0.8c-0.2,0.2-0.5,0.3-0.8,0.3s-0.6-0.1-0.8-0.3C463.4,277.4,463.3,277.1,463.3,276.8z M465.2,296h-1.7v-14.9
				h1.7V296z"/>
			<path class="st0" d="M471.8,281.1l0.1,2.5c0.6-0.9,1.3-1.6,2.1-2.1c0.8-0.5,1.8-0.7,2.8-0.7c1.6,0,2.8,0.4,3.6,1.3s1.2,2.2,1.2,4
				v9.8h-1.6v-9.8c0-1.3-0.3-2.3-0.8-3c-0.6-0.7-1.4-1-2.7-1c-1,0-1.9,0.3-2.7,1c-0.8,0.6-1.4,1.5-1.7,2.6V296h-1.6v-14.9H471.8z"/>
			<path class="st0" d="M485.6,288.4c0-2.3,0.5-4.2,1.5-5.5c1-1.4,2.4-2,4.2-2c2,0,3.6,0.8,4.6,2.4l0.1-2.1h1.5v14.6
				c0,1.9-0.5,3.4-1.6,4.6c-1.1,1.1-2.5,1.7-4.4,1.7c-1,0-2-0.2-3-0.7c-0.9-0.5-1.7-1.1-2.2-1.9l0.9-1c1.2,1.4,2.6,2.1,4.2,2.1
				c1.4,0,2.5-0.4,3.2-1.2c0.8-0.8,1.2-1.9,1.2-3.4v-1.9c-1.1,1.5-2.6,2.2-4.6,2.2c-1.7,0-3.1-0.7-4.2-2.1c-1-1.4-1.6-3.2-1.6-5.6
				V288.4z M487.3,288.7c0,1.9,0.4,3.4,1.1,4.5c0.8,1.1,1.8,1.6,3.2,1.6c2,0,3.5-0.9,4.3-2.7v-6.9c-0.4-1-0.9-1.7-1.7-2.2
				c-0.7-0.5-1.6-0.7-2.6-0.7c-1.4,0-2.5,0.5-3.2,1.6C487.7,285,487.3,286.6,487.3,288.7z"/>
			<path class="st0" d="M523.4,277.4h-6.9V296h-1.7v-18.6h-6.9V276h15.4V277.4z"/>
			<path class="st0" d="M528.4,283.6c0.5-0.9,1.2-1.6,2.1-2.1c0.8-0.5,1.8-0.7,2.8-0.7c1.6,0,2.8,0.4,3.6,1.3s1.2,2.2,1.2,4v9.8
				h-1.6v-9.8c0-1.3-0.3-2.3-0.8-3c-0.6-0.7-1.4-1-2.7-1c-1,0-1.9,0.3-2.7,1c-0.8,0.6-1.4,1.5-1.7,2.6V296h-1.6v-21.1h1.6V283.6z"/>
			<path class="st0" d="M549.7,282.5c-0.3-0.1-0.7-0.1-1.1-0.1c-1,0-1.9,0.3-2.6,0.9c-0.7,0.6-1.2,1.4-1.5,2.5V296h-1.6v-14.9h1.6
				l0,2.4c0.9-1.8,2.3-2.6,4.2-2.6c0.5,0,0.8,0.1,1.1,0.2L549.7,282.5z"/>
			<path class="st0" d="M551.7,288.4c0-1.4,0.3-2.7,0.8-3.9c0.6-1.1,1.3-2,2.4-2.7c1-0.6,2.2-1,3.4-1c2,0,3.6,0.7,4.8,2.1
				c1.2,1.4,1.8,3.2,1.8,5.5v0.3c0,1.4-0.3,2.7-0.8,3.9c-0.6,1.2-1.3,2-2.3,2.7s-2.2,0.9-3.5,0.9c-2,0-3.6-0.7-4.8-2.1
				c-1.2-1.4-1.9-3.2-1.9-5.5V288.4z M553.3,288.8c0,1.8,0.5,3.2,1.4,4.4c0.9,1.1,2.1,1.7,3.6,1.7c1.5,0,2.7-0.6,3.6-1.7
				c0.9-1.1,1.4-2.6,1.4-4.5v-0.3c0-1.1-0.2-2.2-0.6-3.1c-0.4-0.9-1-1.7-1.8-2.2c-0.8-0.5-1.6-0.8-2.6-0.8c-1.5,0-2.7,0.6-3.6,1.7
				c-0.9,1.2-1.4,2.7-1.4,4.5V288.8z"/>
			<path class="st0" d="M578.5,294.1c-1,1.4-2.6,2.2-4.7,2.2c-1.6,0-2.8-0.5-3.6-1.4c-0.8-0.9-1.2-2.3-1.3-4.1v-9.7h1.6v9.5
				c0,2.8,1.1,4.3,3.4,4.3c2.4,0,3.9-1,4.5-3v-10.8h1.7V296h-1.6L578.5,294.1z"/>
			<path class="st0" d="M584.3,288.4c0-2.3,0.5-4.2,1.5-5.5c1-1.4,2.4-2,4.2-2c2,0,3.6,0.8,4.6,2.4l0.1-2.1h1.5v14.6
				c0,1.9-0.5,3.4-1.6,4.6c-1.1,1.1-2.5,1.7-4.4,1.7c-1,0-2-0.2-3-0.7c-0.9-0.5-1.7-1.1-2.2-1.9l0.9-1c1.2,1.4,2.6,2.1,4.2,2.1
				c1.4,0,2.5-0.4,3.2-1.2c0.8-0.8,1.2-1.9,1.2-3.4v-1.9c-1.1,1.5-2.6,2.2-4.6,2.2c-1.7,0-3.1-0.7-4.2-2.1c-1-1.4-1.6-3.2-1.6-5.6
				V288.4z M586,288.7c0,1.9,0.4,3.4,1.1,4.5c0.8,1.1,1.8,1.6,3.2,1.6c2,0,3.5-0.9,4.3-2.7v-6.9c-0.4-1-0.9-1.7-1.7-2.2
				c-0.7-0.5-1.6-0.7-2.6-0.7c-1.4,0-2.5,0.5-3.2,1.6C586.4,285,586,286.6,586,288.7z"/>
			<path class="st0" d="M602.8,283.6c0.5-0.9,1.2-1.6,2.1-2.1c0.8-0.5,1.8-0.7,2.8-0.7c1.6,0,2.8,0.4,3.6,1.3s1.2,2.2,1.2,4v9.8
				h-1.6v-9.8c0-1.3-0.3-2.3-0.8-3c-0.6-0.7-1.4-1-2.7-1c-1,0-1.9,0.3-2.7,1c-0.8,0.6-1.4,1.5-1.7,2.6V296h-1.6v-21.1h1.6V283.6z"/>
			<path class="st0" d="M639.2,289.8c-0.2,2.1-1,3.7-2.3,4.8c-1.3,1.1-3,1.7-5.1,1.7c-1.5,0-2.8-0.4-3.9-1.1c-1.1-0.7-2-1.8-2.6-3.2
				c-0.6-1.4-0.9-2.9-0.9-4.7v-2.6c0-1.8,0.3-3.4,0.9-4.7s1.5-2.4,2.7-3.2c1.2-0.7,2.5-1.1,4-1.1c2.1,0,3.8,0.6,5.1,1.7
				c1.2,1.2,2,2.8,2.2,4.8h-1.7c-0.4-3.4-2.3-5.1-5.5-5.1c-1.8,0-3.3,0.7-4.3,2c-1.1,1.4-1.6,3.2-1.6,5.6v2.5c0,2.3,0.5,4.2,1.6,5.5
				c1,1.4,2.5,2.1,4.3,2.1c1.8,0,3.1-0.4,4-1.3c0.9-0.9,1.5-2.1,1.7-3.8H639.2z"/>
			<path class="st0" d="M642.6,288.4c0-1.4,0.3-2.7,0.8-3.9c0.6-1.1,1.3-2,2.4-2.7c1-0.6,2.2-1,3.4-1c2,0,3.6,0.7,4.8,2.1
				c1.2,1.4,1.8,3.2,1.8,5.5v0.3c0,1.4-0.3,2.7-0.8,3.9c-0.6,1.2-1.3,2-2.3,2.7c-1,0.6-2.2,0.9-3.5,0.9c-2,0-3.6-0.7-4.8-2.1
				c-1.2-1.4-1.9-3.2-1.9-5.5V288.4z M644.2,288.8c0,1.8,0.5,3.2,1.4,4.4c0.9,1.1,2.1,1.7,3.6,1.7c1.5,0,2.7-0.6,3.6-1.7
				c0.9-1.1,1.4-2.6,1.4-4.5v-0.3c0-1.1-0.2-2.2-0.6-3.1c-0.4-0.9-1-1.7-1.8-2.2c-0.8-0.5-1.6-0.8-2.6-0.8c-1.5,0-2.7,0.6-3.6,1.7
				c-0.9,1.2-1.4,2.7-1.4,4.5V288.8z"/>
			<path class="st0" d="M661.7,296h-1.7v-21.1h1.7V296z"/>
			<path class="st0" d="M665.8,288.4c0-1.4,0.3-2.7,0.8-3.9c0.6-1.1,1.3-2,2.4-2.7c1-0.6,2.2-1,3.4-1c2,0,3.6,0.7,4.8,2.1
				c1.2,1.4,1.8,3.2,1.8,5.5v0.3c0,1.4-0.3,2.7-0.8,3.9c-0.6,1.2-1.3,2-2.3,2.7s-2.2,0.9-3.5,0.9c-2,0-3.6-0.7-4.8-2.1
				c-1.2-1.4-1.9-3.2-1.9-5.5V288.4z M667.5,288.8c0,1.8,0.5,3.2,1.4,4.4c0.9,1.1,2.1,1.7,3.6,1.7c1.5,0,2.7-0.6,3.6-1.7
				c0.9-1.1,1.4-2.6,1.4-4.5v-0.3c0-1.1-0.2-2.2-0.6-3.1c-0.4-0.9-1-1.7-1.8-2.2c-0.8-0.5-1.6-0.8-2.6-0.8c-1.5,0-2.7,0.6-3.6,1.7
				c-0.9,1.2-1.4,2.7-1.4,4.5V288.8z"/>
			<path class="st0" d="M690,282.5c-0.3-0.1-0.7-0.1-1.1-0.1c-1,0-1.9,0.3-2.6,0.9c-0.7,0.6-1.2,1.4-1.5,2.5V296h-1.6v-14.9h1.6
				l0,2.4c0.9-1.8,2.3-2.6,4.2-2.6c0.5,0,0.8,0.1,1.1,0.2L690,282.5z"/>
		</g>
		<g>
			<path class="st0" d="M375.4,155h-12.9V190h-8.7V155h-12.7v-7h34.3V155z"/>
			<path class="st0" d="M389.2,162.2c2.2-2.7,5-4,8.4-4c6.8,0,10.2,3.9,10.3,11.8v20h-8.4v-19.8c0-1.8-0.4-3.1-1.2-4
				c-0.8-0.9-2.1-1.3-3.8-1.3c-2.4,0-4.2,0.9-5.3,2.8V190h-8.4v-44.4h8.4V162.2z"/>
			<path class="st0" d="M429.7,190.6c-4.6,0-8.3-1.4-11.2-4.2c-2.9-2.8-4.3-6.6-4.3-11.2v-0.8c0-3.1,0.6-5.9,1.8-8.4
				c1.2-2.5,2.9-4.4,5.2-5.7c2.2-1.3,4.8-2,7.6-2c4.3,0,7.6,1.3,10.1,4c2.5,2.7,3.7,6.5,3.7,11.5v3.4h-19.9c0.3,2,1.1,3.7,2.4,4.9
				c1.4,1.2,3.1,1.9,5.2,1.9c3.2,0,5.7-1.2,7.5-3.5l4.1,4.6c-1.3,1.8-3,3.2-5.1,4.1C434.7,190.1,432.3,190.6,429.7,190.6z
				 M428.8,164.9c-1.7,0-3,0.6-4,1.7c-1,1.1-1.7,2.7-2,4.8h11.6v-0.7c0-1.9-0.5-3.3-1.5-4.3S430.5,164.9,428.8,164.9z"/>
			<path class="st0" d="M352.4,240v14.8h-8.7v-42.1h16.4c3.2,0,5.9,0.6,8.3,1.7c2.4,1.2,4.2,2.8,5.5,4.9c1.3,2.1,1.9,4.6,1.9,7.3
				c0,4.1-1.4,7.4-4.2,9.8c-2.8,2.4-6.7,3.6-11.7,3.6H352.4z M352.4,233h7.7c2.3,0,4-0.5,5.2-1.6c1.2-1.1,1.8-2.6,1.8-4.6
				c0-2.1-0.6-3.7-1.8-5c-1.2-1.3-2.9-1.9-5-2h-7.9V233z"/>
			<path class="st0" d="M400.4,254.9c-0.4-0.8-0.7-1.7-0.8-2.8c-2,2.3-4.7,3.4-7.9,3.4c-3.1,0-5.6-0.9-7.6-2.7c-2-1.8-3-4-3-6.7
				c0-3.3,1.2-5.9,3.7-7.6c2.5-1.8,6-2.7,10.7-2.7h3.8V234c0-1.4-0.4-2.6-1.1-3.5c-0.7-0.9-1.9-1.3-3.5-1.3c-1.4,0-2.5,0.3-3.3,1
				c-0.8,0.7-1.2,1.6-1.2,2.8h-8.4c0-1.8,0.6-3.5,1.7-5c1.1-1.5,2.7-2.8,4.7-3.6c2-0.9,4.3-1.3,6.9-1.3c3.9,0,6.9,1,9.2,2.9
				c2.3,1.9,3.4,4.7,3.4,8.2v13.6c0,3,0.4,5.2,1.2,6.7v0.5H400.4z M393.5,249.1c1.2,0,2.4-0.3,3.4-0.8c1-0.5,1.8-1.3,2.3-2.2v-5.4
				h-3.1c-4.2,0-6.4,1.4-6.7,4.3l0,0.5c0,1,0.4,1.9,1.1,2.6C391.2,248.7,392.2,249.1,393.5,249.1z"/>
			<path class="st0" d="M424,254.9h-8.4v-44.4h8.4V254.9z"/>
			<path class="st0" d="M446.5,255.4c-4.6,0-8.3-1.4-11.2-4.2c-2.9-2.8-4.3-6.6-4.3-11.2v-0.8c0-3.1,0.6-5.9,1.8-8.4
				c1.2-2.5,2.9-4.4,5.2-5.7c2.2-1.3,4.8-2,7.6-2c4.3,0,7.6,1.3,10.1,4c2.5,2.7,3.7,6.5,3.7,11.5v3.4h-19.9c0.3,2,1.1,3.7,2.4,4.9
				c1.4,1.2,3.1,1.9,5.2,1.9c3.2,0,5.7-1.2,7.5-3.5l4.1,4.6c-1.3,1.8-3,3.2-5.1,4.1C451.4,255,449.1,255.4,446.5,255.4z
				 M445.5,229.8c-1.7,0-3,0.6-4,1.7c-1,1.1-1.7,2.7-2,4.8h11.6v-0.7c0-1.9-0.5-3.3-1.5-4.3S447.3,229.8,445.5,229.8z"/>
			<path class="st0" d="M475.2,215.9v7.7h5.3v6.1h-5.3v15.6c0,1.2,0.2,2,0.7,2.5s1.3,0.8,2.5,0.8c0.9,0,1.7-0.1,2.5-0.2v6.3
				c-1.6,0.5-3.3,0.8-5.1,0.8c-5.9,0-8.8-3-9-8.9v-16.9h-4.6v-6.1h4.6v-7.7H475.2z"/>
			<path class="st0" d="M493.6,215.9v7.7h5.3v6.1h-5.3v15.6c0,1.2,0.2,2,0.7,2.5s1.3,0.8,2.5,0.8c0.9,0,1.7-0.1,2.5-0.2v6.3
				c-1.6,0.5-3.3,0.8-5.1,0.8c-5.9,0-8.8-3-9-8.9v-16.9h-4.6v-6.1h4.6v-7.7H493.6z"/>
			<path class="st0" d="M519.2,255.4c-4.6,0-8.3-1.4-11.2-4.2c-2.9-2.8-4.3-6.6-4.3-11.2v-0.8c0-3.1,0.6-5.9,1.8-8.4
				c1.2-2.5,2.9-4.4,5.2-5.7c2.2-1.3,4.8-2,7.6-2c4.3,0,7.6,1.3,10.1,4c2.5,2.7,3.7,6.5,3.7,11.5v3.4h-19.9c0.3,2,1.1,3.7,2.4,4.9
				c1.4,1.2,3.1,1.9,5.2,1.9c3.2,0,5.7-1.2,7.5-3.5l4.1,4.6c-1.3,1.8-3,3.2-5.1,4.1C524.2,255,521.8,255.4,519.2,255.4z
				 M518.2,229.8c-1.7,0-3,0.6-4,1.7c-1,1.1-1.7,2.7-2,4.8h11.6v-0.7c0-1.9-0.5-3.3-1.5-4.3S520,229.8,518.2,229.8z"/>
		</g>
	</g>
</g>
</svg>
