<?xml version="1.0" encoding="utf-8"?>
<!-- Generator: Adobe Illustrator 22.1.0, SVG Export Plug-In . SVG Version: 6.00 Build 0)  -->
<svg version="1.1" id="圖層_1" xmlns="http://www.w3.org/2000/svg" xmlns:xlink="http://www.w3.org/1999/xlink" x="0px" y="0px"
	 viewBox="0 0 404.1 180.9" style="enable-background:new 0 0 404.1 180.9;" xml:space="preserve">
<style type="text/css">
	.st0{fill:#FFFFFF;}
</style>
<g>
	<g>
		<path class="st0" d="M1.6,174.1v-23.2h6.9c2.5,0,4.4,0.5,5.7,1.5s1.9,2.5,1.9,4.5c0,1.2-0.3,2.2-1,3.1c-0.7,0.9-1.5,1.5-2.7,1.9
			c1.3,0.3,2.4,1,3.3,2c0.8,1,1.2,2.2,1.2,3.6c0,2.1-0.7,3.7-2,4.8c-1.3,1.2-3.2,1.7-5.5,1.7H1.6V174.1z M3.6,161.3H9
			c1.6,0,2.9-0.4,3.8-1.2c0.9-0.7,1.3-1.8,1.3-3.2c0-1.5-0.5-2.6-1.4-3.3s-2.3-1.1-4.2-1.1H3.6V161.3z M3.6,163v9.5h5.9
			c1.7,0,3-0.4,4-1.3c1-0.9,1.5-2,1.5-3.6c0-1.4-0.5-2.6-1.4-3.4c-0.9-0.8-2.2-1.2-3.9-1.2H3.6z"/>
		<path class="st0" d="M28.5,174.4c-1.5,0-2.8-0.4-4-1.1c-1.2-0.7-2.1-1.7-2.8-3c-0.7-1.3-1-2.7-1-4.3v-0.7c0-1.7,0.3-3.1,1-4.5
			c0.6-1.3,1.5-2.4,2.7-3.1c1.1-0.8,2.4-1.1,3.7-1.1c2.1,0,3.8,0.7,5,2.1c1.2,1.4,1.8,3.4,1.8,5.9v1.1H22.7v0.4c0,2,0.6,3.6,1.7,4.9
			c1.1,1.3,2.5,2,4.2,2c1,0,1.9-0.2,2.7-0.6c0.8-0.4,1.5-1,2.1-1.8l1.2,0.9C33.2,173.4,31.2,174.4,28.5,174.4z M28.2,158.2
			c-1.4,0-2.6,0.5-3.6,1.6s-1.6,2.5-1.8,4.2h10.3v-0.2c-0.1-1.7-0.5-3-1.4-4S29.6,158.2,28.2,158.2z"/>
		<path class="st0" d="M42.3,152.4v4.4h3.6v1.6h-3.6v11.5c0,1,0.2,1.7,0.5,2.1c0.3,0.5,0.9,0.7,1.7,0.7c0.3,0,0.8-0.1,1.5-0.2
			l0.1,1.5c-0.5,0.2-1.2,0.3-2,0.3c-1.3,0-2.3-0.4-2.9-1.1c-0.6-0.8-0.9-1.9-0.9-3.4v-11.4h-3.2v-1.6h3.2v-4.4H42.3z"/>
		<path class="st0" d="M53.5,152.4v4.4h3.6v1.6h-3.6v11.5c0,1,0.2,1.7,0.5,2.1c0.3,0.5,0.9,0.7,1.7,0.7c0.3,0,0.8-0.1,1.5-0.2
			l0.1,1.5c-0.5,0.2-1.2,0.3-2,0.3c-1.3,0-2.3-0.4-2.9-1.1c-0.6-0.8-0.9-1.9-0.9-3.4v-11.4h-3.2v-1.6h3.2v-4.4H53.5z"/>
		<path class="st0" d="M68.3,174.4c-1.5,0-2.8-0.4-4-1.1c-1.2-0.7-2.1-1.7-2.8-3s-1-2.7-1-4.3v-0.7c0-1.7,0.3-3.1,1-4.5
			c0.6-1.3,1.5-2.4,2.7-3.1c1.1-0.8,2.4-1.1,3.7-1.1c2.1,0,3.8,0.7,5,2.1c1.2,1.4,1.8,3.4,1.8,5.9v1.1H62.5v0.4c0,2,0.6,3.6,1.7,4.9
			c1.1,1.3,2.5,2,4.2,2c1,0,1.9-0.2,2.7-0.6c0.8-0.4,1.5-1,2.1-1.8l1.2,0.9C73,173.4,71,174.4,68.3,174.4z M68,158.2
			c-1.4,0-2.6,0.5-3.6,1.6c-1,1.1-1.6,2.5-1.8,4.2h10.3v-0.2c-0.1-1.7-0.5-3-1.4-4C70.6,158.7,69.4,158.2,68,158.2z"/>
		<path class="st0" d="M87.1,158.5c-0.4-0.1-0.8-0.1-1.3-0.1c-1.2,0-2.2,0.3-3,1s-1.4,1.6-1.8,2.9v11.8h-1.9v-17.2H81v2.7
			c1-2,2.6-3.1,4.9-3.1c0.5,0,1,0.1,1.3,0.2L87.1,158.5z"/>
		<path class="st0" d="M101.8,172.4h11.5v1.7H99.9v-23.2h2L101.8,172.4L101.8,172.4z"/>
		<path class="st0" d="M117.1,151.9c0-0.4,0.1-0.7,0.4-0.9c0.2-0.2,0.6-0.4,1-0.4s0.7,0.1,1,0.4c0.2,0.2,0.4,0.6,0.4,0.9
			c0,0.4-0.1,0.7-0.4,0.9c-0.2,0.2-0.6,0.4-1,0.4s-0.7-0.1-1-0.4S117.1,152.2,117.1,151.9z M119.4,174.1h-1.9v-17.2h1.9V174.1z"/>
		<path class="st0" d="M130.6,171.5l5.2-14.6h2l-6.4,17.2h-1.5l-6.5-17.2h2L130.6,171.5z"/>
		<path class="st0" d="M141.5,151.9c0-0.4,0.1-0.7,0.4-0.9c0.2-0.2,0.6-0.4,1-0.4s0.7,0.1,1,0.4c0.2,0.2,0.4,0.6,0.4,0.9
			c0,0.4-0.1,0.7-0.4,0.9c-0.2,0.2-0.6,0.4-1,0.4s-0.7-0.1-1-0.4S141.5,152.2,141.5,151.9z M143.7,174.1h-1.9v-17.2h1.9V174.1z"/>
		<path class="st0" d="M151.4,156.9l0.1,2.9c0.6-1.1,1.5-1.9,2.4-2.4c1-0.6,2-0.8,3.2-0.8c1.8,0,3.2,0.5,4.1,1.6
			c0.9,1,1.4,2.6,1.4,4.7v11.3h-1.9v-11.3c0-1.5-0.3-2.7-1-3.4c-0.6-0.8-1.7-1.1-3.1-1.1c-1.2,0-2.2,0.4-3.1,1.1
			c-0.9,0.7-1.6,1.7-2,3v11.8h-1.9v-17.2h1.8V156.9z"/>
		<path class="st0" d="M167.4,165.3c0-2.7,0.6-4.8,1.8-6.4c1.2-1.6,2.8-2.4,4.9-2.4c2.3,0,4.1,0.9,5.4,2.8l0.1-2.5h1.8v16.9
			c0,2.2-0.6,4-1.9,5.3c-1.2,1.3-2.9,1.9-5.1,1.9c-1.2,0-2.3-0.3-3.4-0.8c-1.1-0.5-1.9-1.2-2.6-2.1l1.1-1.1c1.3,1.7,3,2.5,4.8,2.5
			c1.6,0,2.8-0.5,3.7-1.4s1.4-2.2,1.4-3.9v-2.2c-1.2,1.7-3,2.6-5.3,2.6c-2,0-3.6-0.8-4.8-2.4c-1.2-1.6-1.8-3.7-1.8-6.5L167.4,165.3
			L167.4,165.3z M169.3,165.7c0,2.2,0.4,3.9,1.3,5.2c0.9,1.3,2.1,1.9,3.7,1.9c2.3,0,4-1.1,5-3.2v-8c-0.4-1.1-1.1-1.9-1.9-2.5
			c-0.8-0.6-1.8-0.9-3-0.9c-1.6,0-2.9,0.6-3.7,1.9C169.7,161.3,169.3,163.2,169.3,165.7z"/>
		<path class="st0" d="M211,152.6h-8v21.6h-2v-21.6h-7.9v-1.7H211V152.6z"/>
		<path class="st0" d="M216.9,159.8c0.6-1,1.4-1.8,2.4-2.4s2-0.8,3.2-0.8c1.8,0,3.2,0.5,4.1,1.6c0.9,1,1.4,2.6,1.4,4.7v11.3h-1.9
			v-11.3c0-1.5-0.3-2.7-1-3.4c-0.6-0.8-1.7-1.1-3.1-1.1c-1.2,0-2.2,0.4-3.1,1.1c-0.9,0.7-1.6,1.7-2,3v11.8H215v-24.5h1.9
			L216.9,159.8L216.9,159.8z"/>
		<path class="st0" d="M241.5,158.5c-0.4-0.1-0.8-0.1-1.3-0.1c-1.2,0-2.2,0.3-3,1s-1.4,1.6-1.8,2.9v11.8h-1.9v-17.2h1.9v2.7
			c1-2,2.6-3.1,4.9-3.1c0.5,0,1,0.1,1.3,0.2L241.5,158.5z"/>
		<path class="st0" d="M243.8,165.2c0-1.7,0.3-3.1,1-4.5c0.6-1.3,1.6-2.4,2.7-3.1c1.2-0.7,2.5-1.1,4-1.1c2.3,0,4.2,0.8,5.6,2.4
			c1.4,1.6,2.1,3.7,2.1,6.4v0.4c0,1.7-0.3,3.2-1,4.5c-0.6,1.3-1.5,2.4-2.7,3.1c-1.2,0.7-2.5,1.1-4,1.1c-2.3,0-4.1-0.8-5.6-2.4
			c-1.4-1.6-2.1-3.7-2.1-6.4L243.8,165.2L243.8,165.2z M245.7,165.8c0,2.1,0.5,3.8,1.6,5.1s2.5,2,4.2,2s3.1-0.7,4.2-2
			c1.1-1.3,1.6-3.1,1.6-5.2v-0.4c0-1.3-0.2-2.5-0.7-3.6s-1.2-1.9-2.1-2.5s-1.9-0.9-3-0.9c-1.7,0-3.1,0.7-4.2,2
			c-1.1,1.3-1.6,3.1-1.6,5.2L245.7,165.8L245.7,165.8z"/>
		<path class="st0" d="M274.9,171.9c-1.1,1.7-3,2.5-5.5,2.5c-1.8,0-3.2-0.5-4.2-1.6s-1.4-2.6-1.5-4.7v-11.2h1.9v11
			c0,3.3,1.3,4.9,4,4.9c2.8,0,4.5-1.1,5.2-3.4v-12.5h1.9v17.2h-1.8V171.9z"/>
		<path class="st0" d="M281.6,165.3c0-2.7,0.6-4.8,1.8-6.4c1.2-1.6,2.8-2.4,4.9-2.4c2.3,0,4.1,0.9,5.4,2.8l0.1-2.5h1.8v16.9
			c0,2.2-0.6,4-1.9,5.3c-1.2,1.3-2.9,1.9-5.1,1.9c-1.2,0-2.3-0.3-3.4-0.8s-1.9-1.2-2.6-2.1l1.1-1.1c1.3,1.7,3,2.5,4.8,2.5
			c1.6,0,2.8-0.5,3.7-1.4c0.9-0.9,1.4-2.2,1.4-3.9v-2.2c-1.2,1.7-3,2.6-5.3,2.6c-2,0-3.6-0.8-4.8-2.4c-1.2-1.6-1.8-3.7-1.8-6.5v-0.3
			H281.6z M283.6,165.7c0,2.2,0.4,3.9,1.3,5.2s2.1,1.9,3.7,1.9c2.3,0,4-1.1,5-3.2v-8c-0.4-1.1-1.1-1.9-1.9-2.5s-1.8-0.9-3-0.9
			c-1.6,0-2.9,0.6-3.7,1.9C284,161.3,283.6,163.2,283.6,165.7z"/>
		<path class="st0" d="M303.1,159.8c0.6-1,1.4-1.8,2.4-2.4s2-0.8,3.2-0.8c1.8,0,3.2,0.5,4.1,1.6c0.9,1,1.4,2.6,1.4,4.7v11.3h-1.9
			v-11.3c0-1.5-0.3-2.7-1-3.4c-0.6-0.8-1.7-1.1-3.1-1.1c-1.2,0-2.2,0.4-3.1,1.1c-0.9,0.7-1.6,1.7-2,3v11.8h-1.9v-24.5h1.9V159.8z"/>
		<path class="st0" d="M345.2,166.9c-0.3,2.4-1.1,4.3-2.6,5.6s-3.5,1.9-5.9,1.9c-1.7,0-3.2-0.4-4.6-1.3c-1.3-0.9-2.3-2.1-3.1-3.7
			c-0.7-1.6-1.1-3.4-1.1-5.4v-3c0-2.1,0.4-3.9,1.1-5.5s1.8-2.8,3.1-3.7c1.4-0.9,2.9-1.3,4.7-1.3c2.5,0,4.5,0.7,5.9,2
			s2.3,3.2,2.5,5.6h-2c-0.5-3.9-2.6-5.9-6.4-5.9c-2.1,0-3.8,0.8-5,2.4c-1.2,1.6-1.9,3.7-1.9,6.5v2.8c0,2.7,0.6,4.8,1.8,6.4
			c1.2,1.6,2.9,2.4,4.9,2.4c2.1,0,3.6-0.5,4.6-1.5s1.7-2.5,1.9-4.4h2.1V166.9z"/>
		<path class="st0" d="M349.1,165.2c0-1.7,0.3-3.1,1-4.5c0.6-1.3,1.6-2.4,2.7-3.1c1.2-0.7,2.5-1.1,4-1.1c2.3,0,4.2,0.8,5.6,2.4
			c1.4,1.6,2.1,3.7,2.1,6.4v0.4c0,1.7-0.3,3.2-1,4.5c-0.6,1.3-1.5,2.4-2.7,3.1c-1.2,0.7-2.5,1.1-4,1.1c-2.3,0-4.1-0.8-5.6-2.4
			c-1.4-1.6-2.1-3.7-2.1-6.4V165.2z M351,165.8c0,2.1,0.5,3.8,1.6,5.1s2.5,2,4.2,2s3.1-0.7,4.2-2s1.6-3.1,1.6-5.2v-0.4
			c0-1.3-0.2-2.5-0.7-3.6s-1.2-1.9-2.1-2.5s-1.9-0.9-3-0.9c-1.7,0-3.1,0.7-4.2,2s-1.6,3.1-1.6,5.2V165.8z"/>
		<path class="st0" d="M371.3,174.1h-1.9v-24.5h1.9V174.1z"/>
		<path class="st0" d="M376,165.2c0-1.7,0.3-3.1,1-4.5c0.6-1.3,1.6-2.4,2.7-3.1c1.2-0.7,2.5-1.1,4-1.1c2.3,0,4.2,0.8,5.6,2.4
			c1.4,1.6,2.1,3.7,2.1,6.4v0.4c0,1.7-0.3,3.2-1,4.5c-0.6,1.3-1.5,2.4-2.7,3.1c-1.2,0.7-2.5,1.1-4,1.1c-2.3,0-4.1-0.8-5.6-2.4
			c-1.4-1.6-2.1-3.7-2.1-6.4V165.2z M378,165.8c0,2.1,0.5,3.8,1.6,5.1s2.5,2,4.2,2s3.1-0.7,4.2-2s1.6-3.1,1.6-5.2v-0.4
			c0-1.3-0.2-2.5-0.7-3.6s-1.2-1.9-2.1-2.5s-1.9-0.9-3-0.9c-1.7,0-3.1,0.7-4.2,2s-1.6,3.1-1.6,5.2V165.8z"/>
		<path class="st0" d="M404,158.5c-0.4-0.1-0.8-0.1-1.3-0.1c-1.2,0-2.2,0.3-3,1s-1.4,1.6-1.8,2.9v11.8H396v-17.2h1.9v2.7
			c1-2,2.6-3.1,4.9-3.1c0.5,0,1,0.1,1.3,0.2L404,158.5z"/>
	</g>
	<g>
		<path class="st0" d="M39.7,10.8H24.8v40.6h-10V10.8H0V2.7h39.7V10.8z"/>
		<path class="st0" d="M55.6,19.1c2.6-3.1,5.8-4.6,9.7-4.6c7.9,0,11.8,4.6,12,13.7v23.2h-9.7v-23c0-2.1-0.4-3.6-1.3-4.6
			s-2.4-1.5-4.5-1.5c-2.8,0-4.9,1.1-6.2,3.3v25.8h-9.7V0h9.7C55.6,0,55.6,19.1,55.6,19.1z"/>
		<path class="st0" d="M102.6,52c-5.3,0-9.6-1.6-13-4.9c-3.3-3.3-5-7.6-5-13v-0.9c0-3.6,0.7-6.9,2.1-9.8s3.4-5.1,6-6.6
			c2.6-1.6,5.5-2.3,8.8-2.3c5,0,8.9,1.6,11.7,4.7c2.8,3.1,4.3,7.6,4.3,13.3v3.9H94.4c0.3,2.4,1.3,4.3,2.8,5.7c1.6,1.4,3.6,2.1,6,2.1
			c3.7,0,6.6-1.4,8.7-4.1l4.8,5.3c-1.5,2.1-3.4,3.7-5.9,4.8C108.4,51.5,105.6,52,102.6,52z M101.5,22.3c-1.9,0-3.5,0.6-4.7,1.9
			s-2,3.2-2.3,5.6H108V29c0-2.2-0.6-3.8-1.7-5C105.1,22.9,103.6,22.3,101.5,22.3z"/>
		<path class="st0" d="M13.1,109.3v17.1h-10V77.7h19c3.7,0,6.9,0.7,9.7,2s4.9,3.2,6.4,5.7s2.2,5.3,2.2,8.4c0,4.8-1.6,8.5-4.9,11.3
			c-3.3,2.8-7.8,4.1-13.6,4.1h-8.8V109.3z M13.1,101.1h9c2.7,0,4.7-0.6,6.1-1.9c1.4-1.2,2.1-3,2.1-5.4s-0.7-4.3-2.1-5.8
			s-3.3-2.2-5.8-2.3h-9.2v15.4H13.1z"/>
		<path class="st0" d="M68.6,126.4c-0.4-0.9-0.8-2-1-3.2c-2.3,2.6-5.4,3.9-9.1,3.9c-3.5,0-6.5-1-8.8-3.1s-3.5-4.6-3.5-7.8
			c0-3.8,1.4-6.8,4.3-8.8c2.8-2.1,7-3.1,12.3-3.1h4.5v-2.1c0-1.7-0.4-3-1.3-4s-2.2-1.5-4.1-1.5c-1.6,0-2.9,0.4-3.8,1.2
			c-0.9,0.8-1.4,1.9-1.4,3.2H47c0-2.1,0.6-4,1.9-5.8c1.3-1.8,3.1-3.2,5.5-4.2s5-1.5,8-1.5c4.5,0,8,1.1,10.6,3.4
			c2.6,2.2,3.9,5.4,3.9,9.5v15.7c0,3.4,0.5,6,1.4,7.8v0.6h-9.7V126.4z M60.6,119.7c1.4,0,2.7-0.3,3.9-1c1.2-0.6,2.1-1.5,2.7-2.6
			v-6.2h-3.6c-4.8,0-7.4,1.7-7.7,5v0.6c0,1.2,0.4,2.2,1.3,3C58,119.3,59.2,119.7,60.6,119.7z"/>
		<path class="st0" d="M96,126.4h-9.7V75H96V126.4z"/>
		<path class="st0" d="M122,127.1c-5.3,0-9.6-1.6-13-4.9c-3.3-3.3-5-7.6-5-13v-0.9c0-3.6,0.7-6.9,2.1-9.8s3.4-5.1,6-6.6
			c2.6-1.6,5.5-2.3,8.8-2.3c5,0,8.9,1.6,11.7,4.7s4.3,7.6,4.3,13.3v3.9h-23.1c0.3,2.4,1.3,4.3,2.8,5.7c1.6,1.4,3.6,2.1,6,2.1
			c3.7,0,6.6-1.4,8.7-4.1l4.8,5.3c-1.5,2.1-3.4,3.7-5.9,4.8C127.7,126.5,125,127.1,122,127.1z M120.9,97.4c-1.9,0-3.5,0.6-4.7,1.9
			s-2,3.2-2.3,5.6h13.5v-0.8c0-2.2-0.6-3.8-1.7-5C124.5,97.9,122.9,97.4,120.9,97.4z"/>
		<path class="st0" d="M155.3,81.3v8.9h6.2v7.1h-6.2v18.1c0,1.3,0.3,2.3,0.8,2.9s1.5,0.9,2.9,0.9c1.1,0,2-0.1,2.8-0.2v7.3
			c-1.9,0.6-3.8,0.9-5.9,0.9c-6.8,0-10.2-3.4-10.4-10.3V97.4h-5.3v-7.1h5.3v-8.9h9.8V81.3z"/>
		<path class="st0" d="M176.6,81.3v8.9h6.2v7.1h-6.2v18.1c0,1.3,0.3,2.3,0.8,2.9s1.5,0.9,2.9,0.9c1.1,0,2-0.1,2.8-0.2v7.3
			c-1.9,0.6-3.8,0.9-5.9,0.9c-6.8,0-10.2-3.4-10.4-10.3V97.4h-5.3v-7.1h5.3v-8.9h9.8V81.3z"/>
		<path class="st0" d="M206.2,127.1c-5.3,0-9.6-1.6-13-4.9c-3.3-3.3-5-7.6-5-13v-0.9c0-3.6,0.7-6.9,2.1-9.8c1.4-2.9,3.4-5.1,6-6.6
			c2.6-1.6,5.5-2.3,8.8-2.3c5,0,8.9,1.6,11.7,4.7s4.3,7.6,4.3,13.3v3.9H198c0.3,2.4,1.3,4.3,2.8,5.7c1.6,1.4,3.6,2.1,6,2.1
			c3.7,0,6.6-1.4,8.7-4.1l4.8,5.3c-1.5,2.1-3.4,3.7-5.9,4.8C212,126.5,209.2,127.1,206.2,127.1z M205.1,97.4c-1.9,0-3.5,0.6-4.7,1.9
			s-2,3.2-2.3,5.6h13.5v-0.8c0-2.2-0.6-3.8-1.7-5S207.2,97.4,205.1,97.4z"/>
	</g>
</g>
</svg>
