<?xml version="1.0" encoding="utf-8"?>
<!-- Generator: Adobe Illustrator 22.1.0, SVG Export Plug-In . SVG Version: 6.00 Build 0)  -->
<svg version="1.1" id="圖層_1" xmlns="http://www.w3.org/2000/svg" xmlns:xlink="http://www.w3.org/1999/xlink" x="0px" y="0px"
	 viewBox="0 0 405.4 572.6" style="enable-background:new 0 0 405.4 572.6;" xml:space="preserve">
<style type="text/css">
	.st0{fill:#FFFFFF;}
</style>
<g>
	<g>
		<g>
			<path class="st0" d="M62.6,87.4v14.7H52.2V58.9h17.3c3.3,0,6.2,0.6,8.8,1.8c2.5,1.2,4.5,3,5.9,5.2c1.4,2.2,2.1,4.8,2.1,7.6
				c0,4.2-1.5,7.6-4.5,10.1c-3,2.5-7.2,3.8-12.4,3.8H62.6z M62.6,79.4h6.8c2,0,3.6-0.5,4.6-1.5c1.1-1,1.6-2.4,1.6-4.3
				c0-2-0.5-3.6-1.6-4.8c-1.1-1.2-2.6-1.8-4.5-1.8h-7V79.4z"/>
		</g>
		<g>
			<path class="st0" d="M285.6,92h-14.3l-2.5,8.1h-11.1l15.9-43.2h9.8l16,43.2h-11.2L285.6,92z M273.8,84h9.3l-4.7-15L273.8,84z"/>
		</g>
		<g>
			<path class="st0" d="M63.6,195.5h18.1v8H53.2v-43.2h10.4V195.5z"/>
		</g>
		<g>
			<path class="st0" d="M189.6,185.1h-16.4v10.3h19.4v8h-29.8v-43.2h29.9v8h-19.4v9.1h16.4V185.1z"/>
		</g>
		<g>
			<path class="st0" d="M287.8,282.1h-16.4v10.3h19.4v8H261v-43.2h29.9v8h-19.4v9.1h16.4V282.1z"/>
		</g>
		<g>
			<path class="st0" d="M196.7,263.6h-13v35.2h-10.4v-35.2h-12.7v-8h36.1V263.6z"/>
		</g>
		<g>
			<path class="st0" d="M87.1,263.6h-13v35.2H63.7v-35.2H51v-8h36.1V263.6z"/>
		</g>
		<g>
			<polygon class="st0" points="351.6,351.6 47.9,351.6 47.9,334.3 334.3,334.3 334.3,222.9 351.6,222.9 			"/>
		</g>
		<g>
			<polygon class="st0" points="17.2,342.9 0,342.9 0,0 351.6,0 351.6,164.9 303.6,201.9 293.1,188.3 334.3,156.4 334.3,17.2 
				17.2,17.2 			"/>
		</g>
	</g>
	<g>
		<path class="st0" d="M2.9,565.7v-23.2h6.9c2.5,0,4.4,0.5,5.7,1.5s1.9,2.5,1.9,4.5c0,1.2-0.3,2.2-1,3.1c-0.7,0.9-1.5,1.5-2.7,1.9
			c1.3,0.3,2.4,1,3.3,2c0.8,1,1.2,2.2,1.2,3.6c0,2.1-0.7,3.7-2,4.8c-1.3,1.2-3.2,1.7-5.5,1.7H2.9z M4.9,552.9h5.4
			c1.6,0,2.9-0.4,3.8-1.2c0.9-0.7,1.3-1.8,1.3-3.2c0-1.5-0.5-2.6-1.4-3.3c-0.9-0.7-2.3-1.1-4.2-1.1H4.9V552.9z M4.9,554.6v9.5h5.9
			c1.7,0,3-0.4,4-1.3c1-0.9,1.5-2,1.5-3.6c0-1.4-0.5-2.6-1.4-3.4c-0.9-0.8-2.2-1.2-3.9-1.2H4.9z"/>
		<path class="st0" d="M29.8,566c-1.5,0-2.8-0.4-4-1.1c-1.2-0.7-2.1-1.7-2.8-3c-0.7-1.3-1-2.7-1-4.3v-0.7c0-1.7,0.3-3.1,1-4.5
			c0.6-1.3,1.5-2.4,2.7-3.1c1.1-0.8,2.4-1.1,3.7-1.1c2.1,0,3.8,0.7,5,2.1c1.2,1.4,1.8,3.4,1.8,5.9v1.1H24v0.4c0,2,0.6,3.6,1.7,4.9
			c1.1,1.3,2.5,2,4.2,2c1,0,1.9-0.2,2.7-0.6c0.8-0.4,1.5-1,2.1-1.8l1.2,0.9C34.5,565,32.5,566,29.8,566z M29.5,549.8
			c-1.4,0-2.6,0.5-3.6,1.6c-1,1.1-1.6,2.5-1.8,4.2h10.3v-0.2c-0.1-1.7-0.5-3-1.4-4S30.9,549.8,29.5,549.8z"/>
		<path class="st0" d="M43.6,544v4.4h3.6v1.6h-3.6v11.5c0,1,0.2,1.7,0.5,2.1c0.3,0.5,0.9,0.7,1.7,0.7c0.3,0,0.8-0.1,1.5-0.2l0.1,1.5
			c-0.5,0.2-1.2,0.3-2,0.3c-1.3,0-2.3-0.4-2.9-1.1c-0.6-0.8-0.9-1.9-0.9-3.4V550h-3.2v-1.6h3.2V544H43.6z"/>
		<path class="st0" d="M54.8,544v4.4h3.6v1.6h-3.6v11.5c0,1,0.2,1.7,0.5,2.1c0.3,0.5,0.9,0.7,1.7,0.7c0.3,0,0.8-0.1,1.5-0.2l0.1,1.5
			c-0.5,0.2-1.2,0.3-2,0.3c-1.3,0-2.3-0.4-2.9-1.1c-0.6-0.8-0.9-1.9-0.9-3.4V550h-3.2v-1.6h3.2V544H54.8z"/>
		<path class="st0" d="M69.6,566c-1.5,0-2.8-0.4-4-1.1c-1.2-0.7-2.1-1.7-2.8-3c-0.7-1.3-1-2.7-1-4.3v-0.7c0-1.7,0.3-3.1,1-4.5
			c0.6-1.3,1.5-2.4,2.7-3.1c1.1-0.8,2.4-1.1,3.7-1.1c2.1,0,3.8,0.7,5,2.1c1.2,1.4,1.8,3.4,1.8,5.9v1.1H63.8v0.4c0,2,0.6,3.6,1.7,4.9
			c1.1,1.3,2.5,2,4.2,2c1,0,1.9-0.2,2.7-0.6c0.8-0.4,1.5-1,2.1-1.8l1.2,0.9C74.3,565,72.3,566,69.6,566z M69.3,549.8
			c-1.4,0-2.6,0.5-3.6,1.6c-1,1.1-1.6,2.5-1.8,4.2h10.3v-0.2c-0.1-1.7-0.5-3-1.4-4C71.9,550.3,70.7,549.8,69.3,549.8z"/>
		<path class="st0" d="M88.4,550.1c-0.4-0.1-0.8-0.1-1.3-0.1c-1.2,0-2.2,0.3-3,1c-0.8,0.7-1.4,1.6-1.8,2.9v11.8h-1.9v-17.2h1.9
			l0,2.7c1-2,2.6-3.1,4.9-3.1c0.5,0,1,0.1,1.3,0.2L88.4,550.1z"/>
		<path class="st0" d="M103.1,564h11.5v1.7h-13.4v-23.2h2V564z"/>
		<path class="st0" d="M118.4,543.5c0-0.4,0.1-0.7,0.4-0.9c0.2-0.2,0.6-0.4,1-0.4s0.7,0.1,1,0.4c0.2,0.2,0.4,0.6,0.4,0.9
			c0,0.4-0.1,0.7-0.4,0.9c-0.2,0.2-0.6,0.4-1,0.4s-0.7-0.1-1-0.4S118.4,543.8,118.4,543.5z M120.7,565.7h-1.9v-17.2h1.9V565.7z"/>
		<path class="st0" d="M131.9,563.1l5.2-14.6h2l-6.4,17.2h-1.5l-6.5-17.2h2L131.9,563.1z"/>
		<path class="st0" d="M142.8,543.5c0-0.4,0.1-0.7,0.4-0.9c0.2-0.2,0.6-0.4,1-0.4s0.7,0.1,1,0.4c0.2,0.2,0.4,0.6,0.4,0.9
			c0,0.4-0.1,0.7-0.4,0.9c-0.2,0.2-0.6,0.4-1,0.4s-0.7-0.1-1-0.4S142.8,543.8,142.8,543.5z M145,565.7h-1.9v-17.2h1.9V565.7z"/>
		<path class="st0" d="M152.7,548.5l0.1,2.9c0.6-1.1,1.5-1.9,2.4-2.4c1-0.6,2-0.8,3.2-0.8c1.8,0,3.2,0.5,4.1,1.6
			c0.9,1,1.4,2.6,1.4,4.7v11.3H162v-11.3c0-1.5-0.3-2.7-1-3.4c-0.6-0.8-1.7-1.1-3.1-1.1c-1.2,0-2.2,0.4-3.1,1.1
			c-0.9,0.7-1.6,1.7-2,3v11.8h-1.9v-17.2H152.7z"/>
		<path class="st0" d="M168.7,556.9c0-2.7,0.6-4.8,1.8-6.4c1.2-1.6,2.8-2.4,4.9-2.4c2.3,0,4.1,0.9,5.4,2.8l0.1-2.5h1.8v16.9
			c0,2.2-0.6,4-1.9,5.3c-1.2,1.3-2.9,1.9-5.1,1.9c-1.2,0-2.3-0.3-3.4-0.8c-1.1-0.5-1.9-1.2-2.6-2.1l1.1-1.1c1.3,1.7,3,2.5,4.8,2.5
			c1.6,0,2.8-0.5,3.7-1.4c0.9-0.9,1.4-2.2,1.4-3.9v-2.2c-1.2,1.7-3,2.6-5.3,2.6c-2,0-3.6-0.8-4.8-2.4c-1.2-1.6-1.8-3.7-1.8-6.5
			V556.9z M170.6,557.3c0,2.2,0.4,3.9,1.3,5.2c0.9,1.3,2.1,1.9,3.7,1.9c2.3,0,4-1.1,5-3.2v-8c-0.4-1.1-1.1-1.9-1.9-2.5
			c-0.8-0.6-1.8-0.9-3-0.9c-1.6,0-2.9,0.6-3.7,1.9C171,552.9,170.6,554.8,170.6,557.3z"/>
		<path class="st0" d="M212.3,544.2h-8v21.6h-2v-21.6h-7.9v-1.7h17.9V544.2z"/>
		<path class="st0" d="M218.2,551.4c0.6-1,1.4-1.8,2.4-2.4s2-0.8,3.2-0.8c1.8,0,3.2,0.5,4.1,1.6c0.9,1,1.4,2.6,1.4,4.7v11.3h-1.9
			v-11.3c0-1.5-0.3-2.7-1-3.4c-0.6-0.8-1.7-1.1-3.1-1.1c-1.2,0-2.2,0.4-3.1,1.1c-0.9,0.7-1.6,1.7-2,3v11.8h-1.9v-24.5h1.9V551.4z"/>
		<path class="st0" d="M242.8,550.1c-0.4-0.1-0.8-0.1-1.3-0.1c-1.2,0-2.2,0.3-3,1c-0.8,0.7-1.4,1.6-1.8,2.9v11.8h-1.9v-17.2h1.9
			l0,2.7c1-2,2.6-3.1,4.9-3.1c0.5,0,1,0.1,1.3,0.2L242.8,550.1z"/>
		<path class="st0" d="M245.1,556.8c0-1.7,0.3-3.1,1-4.5c0.6-1.3,1.6-2.4,2.7-3.1c1.2-0.7,2.5-1.1,4-1.1c2.3,0,4.2,0.8,5.6,2.4
			c1.4,1.6,2.1,3.7,2.1,6.4v0.4c0,1.7-0.3,3.2-1,4.5c-0.6,1.3-1.5,2.4-2.7,3.1c-1.2,0.7-2.5,1.1-4,1.1c-2.3,0-4.1-0.8-5.6-2.4
			c-1.4-1.6-2.1-3.7-2.1-6.4V556.8z M247,557.4c0,2.1,0.5,3.8,1.6,5.1c1.1,1.3,2.5,2,4.2,2c1.7,0,3.1-0.7,4.2-2
			c1.1-1.3,1.6-3.1,1.6-5.2v-0.4c0-1.3-0.2-2.5-0.7-3.6c-0.5-1.1-1.2-1.9-2.1-2.5c-0.9-0.6-1.9-0.9-3-0.9c-1.7,0-3.1,0.7-4.2,2
			c-1.1,1.3-1.6,3.1-1.6,5.2V557.4z"/>
		<path class="st0" d="M276.2,563.5c-1.1,1.7-3,2.5-5.5,2.5c-1.8,0-3.2-0.5-4.2-1.6c-1-1.1-1.4-2.6-1.5-4.7v-11.2h1.9v11
			c0,3.3,1.3,4.9,4,4.9c2.8,0,4.5-1.1,5.2-3.4v-12.5h1.9v17.2h-1.8L276.2,563.5z"/>
		<path class="st0" d="M282.9,556.9c0-2.7,0.6-4.8,1.8-6.4c1.2-1.6,2.8-2.4,4.9-2.4c2.3,0,4.1,0.9,5.4,2.8l0.1-2.5h1.8v16.9
			c0,2.2-0.6,4-1.9,5.3c-1.2,1.3-2.9,1.9-5.1,1.9c-1.2,0-2.3-0.3-3.4-0.8c-1.1-0.5-1.9-1.2-2.6-2.1l1.1-1.1c1.3,1.7,3,2.5,4.8,2.5
			c1.6,0,2.8-0.5,3.7-1.4c0.9-0.9,1.4-2.2,1.4-3.9v-2.2c-1.2,1.7-3,2.6-5.3,2.6c-2,0-3.6-0.8-4.8-2.4c-1.2-1.6-1.8-3.7-1.8-6.5
			V556.9z M284.9,557.3c0,2.2,0.4,3.9,1.3,5.2c0.9,1.3,2.1,1.9,3.7,1.9c2.3,0,4-1.1,5-3.2v-8c-0.4-1.1-1.1-1.9-1.9-2.5
			c-0.8-0.6-1.8-0.9-3-0.9c-1.6,0-2.9,0.6-3.7,1.9C285.3,552.9,284.9,554.8,284.9,557.3z"/>
		<path class="st0" d="M304.4,551.4c0.6-1,1.4-1.8,2.4-2.4s2-0.8,3.2-0.8c1.8,0,3.2,0.5,4.1,1.6c0.9,1,1.4,2.6,1.4,4.7v11.3h-1.9
			v-11.3c0-1.5-0.3-2.7-1-3.4c-0.6-0.8-1.7-1.1-3.1-1.1c-1.2,0-2.2,0.4-3.1,1.1c-0.9,0.7-1.6,1.7-2,3v11.8h-1.9v-24.5h1.9V551.4z"/>
		<path class="st0" d="M346.5,558.5c-0.3,2.4-1.1,4.3-2.6,5.6c-1.5,1.3-3.5,1.9-5.9,1.9c-1.7,0-3.2-0.4-4.6-1.3
			c-1.3-0.9-2.3-2.1-3.1-3.7c-0.7-1.6-1.1-3.4-1.1-5.4v-3c0-2.1,0.4-3.9,1.1-5.5c0.7-1.6,1.8-2.8,3.1-3.7c1.4-0.9,2.9-1.3,4.7-1.3
			c2.5,0,4.5,0.7,5.9,2c1.4,1.3,2.3,3.2,2.5,5.6h-2c-0.5-3.9-2.6-5.9-6.4-5.9c-2.1,0-3.8,0.8-5,2.4c-1.2,1.6-1.9,3.7-1.9,6.5v2.8
			c0,2.7,0.6,4.8,1.8,6.4c1.2,1.6,2.9,2.4,4.9,2.4c2.1,0,3.6-0.5,4.6-1.5c1-1,1.7-2.5,1.9-4.4H346.5z"/>
		<path class="st0" d="M350.4,556.8c0-1.7,0.3-3.1,1-4.5c0.6-1.3,1.6-2.4,2.7-3.1c1.2-0.7,2.5-1.1,4-1.1c2.3,0,4.2,0.8,5.6,2.4
			c1.4,1.6,2.1,3.7,2.1,6.4v0.4c0,1.7-0.3,3.2-1,4.5c-0.6,1.3-1.5,2.4-2.7,3.1c-1.2,0.7-2.5,1.1-4,1.1c-2.3,0-4.1-0.8-5.6-2.4
			c-1.4-1.6-2.1-3.7-2.1-6.4V556.8z M352.3,557.4c0,2.1,0.5,3.8,1.6,5.1c1.1,1.3,2.5,2,4.2,2c1.7,0,3.1-0.7,4.2-2
			c1.1-1.3,1.6-3.1,1.6-5.2v-0.4c0-1.3-0.2-2.5-0.7-3.6c-0.5-1.1-1.2-1.9-2.1-2.5c-0.9-0.6-1.9-0.9-3-0.9c-1.7,0-3.1,0.7-4.2,2
			c-1.1,1.3-1.6,3.1-1.6,5.2V557.4z"/>
		<path class="st0" d="M372.6,565.7h-1.9v-24.5h1.9V565.7z"/>
		<path class="st0" d="M377.3,556.8c0-1.7,0.3-3.1,1-4.5c0.6-1.3,1.6-2.4,2.7-3.1c1.2-0.7,2.5-1.1,4-1.1c2.3,0,4.2,0.8,5.6,2.4
			c1.4,1.6,2.1,3.7,2.1,6.4v0.4c0,1.7-0.3,3.2-1,4.5c-0.6,1.3-1.5,2.4-2.7,3.1c-1.2,0.7-2.5,1.1-4,1.1c-2.3,0-4.1-0.8-5.6-2.4
			c-1.4-1.6-2.1-3.7-2.1-6.4V556.8z M379.3,557.4c0,2.1,0.5,3.8,1.6,5.1c1.1,1.3,2.5,2,4.2,2c1.7,0,3.1-0.7,4.2-2
			c1.1-1.3,1.6-3.1,1.6-5.2v-0.4c0-1.3-0.2-2.5-0.7-3.6s-1.2-1.9-2.1-2.5c-0.9-0.6-1.9-0.9-3-0.9c-1.7,0-3.1,0.7-4.2,2
			c-1.1,1.3-1.6,3.1-1.6,5.2V557.4z"/>
		<path class="st0" d="M405.3,550.1c-0.4-0.1-0.8-0.1-1.3-0.1c-1.2,0-2.2,0.3-3,1c-0.8,0.7-1.4,1.6-1.8,2.9v11.8h-1.9v-17.2h1.9
			l0,2.7c1-2,2.6-3.1,4.9-3.1c0.5,0,1,0.1,1.3,0.2L405.3,550.1z"/>
	</g>
	<g>
		<path class="st0" d="M41,402.4H26.1V443h-10v-40.6H1.3v-8.1H41V402.4z"/>
		<path class="st0" d="M56.9,410.7c2.6-3.1,5.8-4.6,9.7-4.6c7.9,0,11.8,4.6,12,13.7V443h-9.7V420c0-2.1-0.4-3.6-1.3-4.6
			c-0.9-1-2.4-1.5-4.5-1.5c-2.8,0-4.9,1.1-6.2,3.3V443h-9.7v-51.4h9.7V410.7z"/>
		<path class="st0" d="M103.9,443.6c-5.3,0-9.6-1.6-13-4.9c-3.3-3.3-5-7.6-5-13v-0.9c0-3.6,0.7-6.9,2.1-9.8c1.4-2.9,3.4-5.1,6-6.6
			c2.6-1.6,5.5-2.3,8.8-2.3c5,0,8.9,1.6,11.7,4.7c2.8,3.1,4.3,7.6,4.3,13.3v3.9H95.7c0.3,2.4,1.3,4.3,2.8,5.7c1.6,1.4,3.6,2.1,6,2.1
			c3.7,0,6.6-1.4,8.7-4.1l4.8,5.3c-1.5,2.1-3.4,3.7-5.9,4.8C109.7,443.1,106.9,443.6,103.9,443.6z M102.8,413.9
			c-1.9,0-3.5,0.6-4.7,1.9c-1.2,1.3-2,3.2-2.3,5.6h13.5v-0.8c0-2.2-0.6-3.8-1.7-5C106.4,414.5,104.9,413.9,102.8,413.9z"/>
		<path class="st0" d="M14.4,500.9V518h-10v-48.7h19c3.7,0,6.9,0.7,9.7,2c2.8,1.3,4.9,3.2,6.4,5.7c1.5,2.5,2.2,5.3,2.2,8.4
			c0,4.8-1.6,8.5-4.9,11.3c-3.3,2.8-7.8,4.1-13.6,4.1H14.4z M14.4,492.7h9c2.7,0,4.7-0.6,6.1-1.9c1.4-1.2,2.1-3,2.1-5.4
			c0-2.4-0.7-4.3-2.1-5.8c-1.4-1.5-3.3-2.2-5.8-2.3h-9.2V492.7z"/>
		<path class="st0" d="M69.9,518c-0.4-0.9-0.8-2-1-3.2c-2.3,2.6-5.4,3.9-9.1,3.9c-3.5,0-6.5-1-8.8-3.1c-2.3-2.1-3.5-4.6-3.5-7.8
			c0-3.8,1.4-6.8,4.3-8.8c2.8-2.1,7-3.1,12.3-3.1h4.5v-2.1c0-1.7-0.4-3-1.3-4c-0.9-1-2.2-1.5-4.1-1.5c-1.6,0-2.9,0.4-3.8,1.2
			c-0.9,0.8-1.4,1.9-1.4,3.2h-9.7c0-2.1,0.6-4,1.9-5.8c1.3-1.8,3.1-3.2,5.5-4.2c2.4-1,5-1.5,8-1.5c4.5,0,8,1.1,10.6,3.4
			c2.6,2.2,3.9,5.4,3.9,9.5v15.7c0,3.4,0.5,6,1.4,7.8v0.6H69.9z M61.9,511.3c1.4,0,2.7-0.3,3.9-1c1.2-0.6,2.1-1.5,2.7-2.6v-6.2h-3.6
			c-4.8,0-7.4,1.7-7.7,5l0,0.6c0,1.2,0.4,2.2,1.3,3C59.3,510.9,60.5,511.3,61.9,511.3z"/>
		<path class="st0" d="M97.3,518h-9.7v-51.4h9.7V518z"/>
		<path class="st0" d="M123.3,518.7c-5.3,0-9.6-1.6-13-4.9c-3.3-3.3-5-7.6-5-13v-0.9c0-3.6,0.7-6.9,2.1-9.8c1.4-2.9,3.4-5.1,6-6.6
			c2.6-1.6,5.5-2.3,8.8-2.3c5,0,8.9,1.6,11.7,4.7c2.8,3.1,4.3,7.6,4.3,13.3v3.9h-23.1c0.3,2.4,1.3,4.3,2.8,5.7
			c1.6,1.4,3.6,2.1,6,2.1c3.7,0,6.6-1.4,8.7-4.1l4.8,5.3c-1.5,2.1-3.4,3.7-5.9,4.8C129,518.1,126.3,518.7,123.3,518.7z M122.2,489
			c-1.9,0-3.5,0.6-4.7,1.9c-1.2,1.3-2,3.2-2.3,5.6h13.5v-0.8c0-2.2-0.6-3.8-1.7-5C125.8,489.5,124.2,489,122.2,489z"/>
		<path class="st0" d="M156.6,472.9v8.9h6.2v7.1h-6.2V507c0,1.3,0.3,2.3,0.8,2.9s1.5,0.9,2.9,0.9c1.1,0,2-0.1,2.8-0.2v7.3
			c-1.9,0.6-3.8,0.9-5.9,0.9c-6.8,0-10.2-3.4-10.4-10.3v-19.5h-5.3v-7.1h5.3v-8.9H156.6z"/>
		<path class="st0" d="M177.9,472.9v8.9h6.2v7.1h-6.2V507c0,1.3,0.3,2.3,0.8,2.9s1.5,0.9,2.9,0.9c1.1,0,2-0.1,2.8-0.2v7.3
			c-1.9,0.6-3.8,0.9-5.9,0.9c-6.8,0-10.2-3.4-10.4-10.3v-19.5h-5.3v-7.1h5.3v-8.9H177.9z"/>
		<path class="st0" d="M207.5,518.7c-5.3,0-9.6-1.6-13-4.9c-3.3-3.3-5-7.6-5-13v-0.9c0-3.6,0.7-6.9,2.1-9.8c1.4-2.9,3.4-5.1,6-6.6
			c2.6-1.6,5.5-2.3,8.8-2.3c5,0,8.9,1.6,11.7,4.7c2.8,3.1,4.3,7.6,4.3,13.3v3.9h-23.1c0.3,2.4,1.3,4.3,2.8,5.7
			c1.6,1.4,3.6,2.1,6,2.1c3.7,0,6.6-1.4,8.7-4.1l4.8,5.3c-1.5,2.1-3.4,3.7-5.9,4.8C213.3,518.1,210.5,518.7,207.5,518.7z M206.4,489
			c-1.9,0-3.5,0.6-4.7,1.9c-1.2,1.3-2,3.2-2.3,5.6h13.5v-0.8c0-2.2-0.6-3.8-1.7-5C210.1,489.5,208.5,489,206.4,489z"/>
	</g>
</g>
</svg>
