<?xml version="1.0" encoding="utf-8"?>
<!-- Generator: Adobe Illustrator 22.1.0, SVG Export Plug-In . SVG Version: 6.00 Build 0)  -->
<svg version="1.1" id="圖層_1" xmlns="http://www.w3.org/2000/svg" xmlns:xlink="http://www.w3.org/1999/xlink" x="0px" y="0px"
	 viewBox="0 0 670.2 297.8" style="enable-background:new 0 0 670.2 297.8;" xml:space="preserve">
<style type="text/css">
	.st0{fill:#040000;}
	.st1{fill:#231815;}
</style>
<g>
	<g>
		<polygon class="st1" points="239,48.4 234.8,62.1 243.3,62.1 		"/>
		<path class="st1" d="M53.1,56.6c1-0.9,1.4-2.2,1.4-3.9c0-1.8-0.5-3.3-1.5-4.4c-1-1.1-2.3-1.7-4.1-1.7h-6.3v11.4h6.2
			C50.7,57.9,52.1,57.5,53.1,56.6z"/>
		<path class="st1" d="M256,172.3l-7.9-10.2l43.2-33.4V0H0v297.8h22.8v-6.5h268.5V182.1h6.5v-42L256,172.3z M133.8,131.5H161v7.3
			h-17.7v8.3h14.9v7h-14.9v9.4h17.6v7.3h-27.1V131.5z M33.2,39.3h15.7c3,0,5.7,0.6,8,1.7c2.3,1.1,4.1,2.7,5.4,4.7
			c1.3,2,1.9,4.4,1.9,7c0,3.8-1.4,6.9-4.1,9.2c-2.7,2.3-6.5,3.4-11.3,3.4h-6.1v13.4h-9.5V39.3z M60.1,163.6v7.3h-26v-39.4h9.5v32.1
			H60.1z M65,225.6H53.2v32h-9.5v-32H32.1v-7.3H65V225.6z M164.7,225.6h-11.8v32h-9.5v-32h-11.6v-7.3h32.9V225.6z M234.6,37.4h8.9
			L258,76.8h-10.2l-2.3-7.4h-13l-2.3,7.4h-10.1L234.6,37.4z M250.4,227h-17.7v8.3h14.9v7h-14.9v9.4h17.6v7.3h-27.1v-39.4h27.2V227z"
			/>
	</g>
	<g>
		<g>
			<path class="st0" d="M322.5,289.4v-20.1h5.9c2.1,0,3.8,0.4,4.9,1.3c1.1,0.9,1.7,2.2,1.7,3.9c0,1-0.3,1.9-0.8,2.7
				c-0.6,0.8-1.3,1.3-2.3,1.6c1.2,0.3,2.1,0.8,2.8,1.7c0.7,0.9,1.1,1.9,1.1,3.1c0,1.8-0.6,3.2-1.7,4.2c-1.1,1-2.7,1.5-4.8,1.5H322.5
				z M324.2,278.3h4.6c1.4,0,2.5-0.4,3.3-1c0.8-0.6,1.2-1.6,1.2-2.8c0-1.3-0.4-2.2-1.2-2.9c-0.8-0.6-2-0.9-3.6-0.9h-4.2V278.3z
				 M324.2,279.8v8.2h5.1c1.5,0,2.6-0.4,3.4-1.1c0.9-0.7,1.3-1.8,1.3-3.1c0-1.2-0.4-2.2-1.2-2.9c-0.8-0.7-1.9-1.1-3.4-1.1H324.2z"/>
			<path class="st0" d="M345.7,289.7c-1.3,0-2.4-0.3-3.4-0.9c-1-0.6-1.8-1.5-2.4-2.6c-0.6-1.1-0.9-2.4-0.9-3.8v-0.6
				c0-1.4,0.3-2.7,0.8-3.9c0.6-1.1,1.3-2,2.3-2.7c1-0.7,2.1-1,3.2-1c1.8,0,3.2,0.6,4.3,1.9c1.1,1.2,1.6,2.9,1.6,5.1v0.9h-10.6v0.3
				c0,1.7,0.5,3.1,1.5,4.2c1,1.1,2.2,1.7,3.7,1.7c0.9,0,1.7-0.2,2.3-0.5c0.7-0.3,1.3-0.8,1.8-1.5l1,0.8
				C349.8,288.8,348,289.7,345.7,289.7z M345.4,275.6c-1.2,0-2.3,0.5-3.1,1.4c-0.9,0.9-1.4,2.1-1.6,3.7h8.9v-0.2
				c0-1.4-0.5-2.6-1.2-3.5C347.7,276.1,346.7,275.6,345.4,275.6z"/>
			<path class="st0" d="M357.6,270.7v3.8h3.1v1.3h-3.1v9.9c0,0.8,0.1,1.4,0.4,1.8c0.3,0.4,0.8,0.6,1.5,0.6c0.3,0,0.7,0,1.3-0.1
				l0.1,1.3c-0.4,0.2-1,0.2-1.8,0.2c-1.1,0-2-0.3-2.5-1c-0.5-0.7-0.8-1.6-0.8-2.9v-9.9h-2.7v-1.3h2.7v-3.8H357.6z"/>
			<path class="st0" d="M367.3,270.7v3.8h3.1v1.3h-3.1v9.9c0,0.8,0.1,1.4,0.4,1.8c0.3,0.4,0.8,0.6,1.5,0.6c0.3,0,0.7,0,1.3-0.1
				l0.1,1.3c-0.4,0.2-1,0.2-1.8,0.2c-1.1,0-2-0.3-2.5-1c-0.5-0.7-0.8-1.6-0.8-2.9v-9.9h-2.7v-1.3h2.7v-3.8H367.3z"/>
			<path class="st0" d="M380.1,289.7c-1.3,0-2.4-0.3-3.4-0.9c-1-0.6-1.8-1.5-2.4-2.6c-0.6-1.1-0.9-2.4-0.9-3.8v-0.6
				c0-1.4,0.3-2.7,0.8-3.9c0.6-1.1,1.3-2,2.3-2.7c1-0.7,2.1-1,3.2-1c1.8,0,3.2,0.6,4.3,1.9c1.1,1.2,1.6,2.9,1.6,5.1v0.9h-10.6v0.3
				c0,1.7,0.5,3.1,1.5,4.2c1,1.1,2.2,1.7,3.7,1.7c0.9,0,1.7-0.2,2.3-0.5c0.7-0.3,1.3-0.8,1.8-1.5l1,0.8
				C384.2,288.8,382.4,289.7,380.1,289.7z M379.8,275.6c-1.2,0-2.3,0.5-3.1,1.4c-0.9,0.9-1.4,2.1-1.6,3.7h8.9v-0.2
				c0-1.4-0.5-2.6-1.2-3.5C382.1,276.1,381,275.6,379.8,275.6z"/>
			<path class="st0" d="M396.4,275.9c-0.3-0.1-0.7-0.1-1.1-0.1c-1,0-1.9,0.3-2.6,0.9c-0.7,0.6-1.2,1.4-1.5,2.5v10.2h-1.6v-14.9h1.6
				l0,2.4c0.9-1.8,2.3-2.6,4.2-2.6c0.5,0,0.8,0.1,1.1,0.2L396.4,275.9z"/>
			<path class="st0" d="M409,288h9.9v1.4h-11.6v-20.1h1.7V288z"/>
			<path class="st0" d="M422.3,270.2c0-0.3,0.1-0.6,0.3-0.8c0.2-0.2,0.5-0.3,0.8-0.3s0.6,0.1,0.8,0.3c0.2,0.2,0.3,0.5,0.3,0.8
				c0,0.3-0.1,0.6-0.3,0.8c-0.2,0.2-0.5,0.3-0.8,0.3s-0.6-0.1-0.8-0.3C422.4,270.8,422.3,270.5,422.3,270.2z M424.2,289.4h-1.7
				v-14.9h1.7V289.4z"/>
			<path class="st0" d="M433.9,287.1l4.5-12.6h1.7l-5.6,14.9h-1.3l-5.6-14.9h1.7L433.9,287.1z"/>
			<path class="st0" d="M443.3,270.2c0-0.3,0.1-0.6,0.3-0.8s0.5-0.3,0.8-0.3s0.6,0.1,0.8,0.3c0.2,0.2,0.3,0.5,0.3,0.8
				c0,0.3-0.1,0.6-0.3,0.8c-0.2,0.2-0.5,0.3-0.8,0.3s-0.6-0.1-0.8-0.3C443.4,270.8,443.3,270.5,443.3,270.2z M445.2,289.4h-1.7
				v-14.9h1.7V289.4z"/>
			<path class="st0" d="M451.8,274.5l0.1,2.5c0.6-0.9,1.3-1.6,2.1-2.1c0.8-0.5,1.8-0.7,2.8-0.7c1.6,0,2.8,0.4,3.6,1.3s1.2,2.3,1.2,4
				v9.8h-1.6v-9.8c0-1.3-0.3-2.3-0.8-3c-0.6-0.7-1.4-1-2.7-1c-1,0-1.9,0.3-2.7,1c-0.8,0.6-1.4,1.5-1.7,2.6v10.2h-1.6v-14.9H451.8z"
				/>
			<path class="st0" d="M465.7,281.8c0-2.3,0.5-4.2,1.5-5.5c1-1.4,2.4-2,4.2-2c2,0,3.6,0.8,4.6,2.4l0.1-2.1h1.5v14.6
				c0,1.9-0.5,3.4-1.6,4.6c-1.1,1.1-2.5,1.7-4.4,1.7c-1,0-2-0.2-3-0.7c-0.9-0.5-1.7-1.1-2.2-1.9l0.9-1c1.2,1.4,2.6,2.1,4.2,2.1
				c1.4,0,2.5-0.4,3.2-1.2c0.8-0.8,1.2-1.9,1.2-3.4v-1.9c-1.1,1.5-2.6,2.2-4.6,2.2c-1.7,0-3.1-0.7-4.2-2.1c-1-1.4-1.6-3.2-1.6-5.6
				V281.8z M467.3,282.1c0,1.9,0.4,3.4,1.1,4.5c0.8,1.1,1.8,1.6,3.2,1.6c2,0,3.5-0.9,4.3-2.7v-6.9c-0.4-1-0.9-1.7-1.7-2.2
				c-0.7-0.5-1.6-0.7-2.6-0.7c-1.4,0-2.5,0.5-3.2,1.6C467.7,278.4,467.3,280,467.3,282.1z"/>
			<path class="st0" d="M503.4,270.8h-6.9v18.6h-1.7v-18.6H488v-1.4h15.4V270.8z"/>
			<path class="st0" d="M508.5,277c0.5-0.9,1.2-1.6,2.1-2.1c0.8-0.5,1.8-0.7,2.8-0.7c1.6,0,2.8,0.4,3.6,1.3s1.2,2.3,1.2,4v9.8h-1.6
				v-9.8c0-1.3-0.3-2.3-0.8-3c-0.6-0.7-1.4-1-2.7-1c-1,0-1.9,0.3-2.7,1c-0.8,0.6-1.4,1.5-1.7,2.6v10.2h-1.6v-21.2h1.6V277z"/>
			<path class="st0" d="M529.8,275.9c-0.3-0.1-0.7-0.1-1.1-0.1c-1,0-1.9,0.3-2.6,0.9c-0.7,0.6-1.2,1.4-1.5,2.5v10.2h-1.6v-14.9h1.6
				l0,2.4c0.9-1.8,2.3-2.6,4.2-2.6c0.5,0,0.8,0.1,1.1,0.2L529.8,275.9z"/>
			<path class="st0" d="M531.7,281.7c0-1.4,0.3-2.7,0.8-3.9c0.6-1.1,1.3-2,2.4-2.7c1-0.6,2.2-1,3.4-1c2,0,3.6,0.7,4.8,2.1
				c1.2,1.4,1.8,3.2,1.8,5.5v0.3c0,1.4-0.3,2.7-0.8,3.9c-0.6,1.2-1.3,2-2.3,2.7c-1,0.6-2.2,0.9-3.5,0.9c-2,0-3.6-0.7-4.8-2.1
				c-1.2-1.4-1.9-3.2-1.9-5.5V281.7z M533.4,282.2c0,1.8,0.5,3.2,1.4,4.4c0.9,1.1,2.1,1.7,3.6,1.7c1.5,0,2.7-0.6,3.6-1.7
				c0.9-1.1,1.4-2.7,1.4-4.5v-0.3c0-1.1-0.2-2.2-0.6-3.1c-0.4-0.9-1-1.7-1.8-2.2c-0.8-0.5-1.6-0.8-2.6-0.8c-1.5,0-2.7,0.6-3.6,1.7
				c-0.9,1.2-1.4,2.7-1.4,4.5V282.2z"/>
			<path class="st0" d="M558.6,287.5c-1,1.4-2.6,2.2-4.8,2.2c-1.6,0-2.8-0.5-3.6-1.4c-0.8-0.9-1.2-2.3-1.3-4.1v-9.7h1.6v9.5
				c0,2.8,1.1,4.3,3.4,4.3c2.4,0,3.9-1,4.5-3v-10.8h1.7v14.9h-1.6L558.6,287.5z"/>
			<path class="st0" d="M564.4,281.8c0-2.3,0.5-4.2,1.5-5.5c1-1.4,2.4-2,4.2-2c2,0,3.6,0.8,4.6,2.4l0.1-2.1h1.5v14.6
				c0,1.9-0.5,3.4-1.6,4.6c-1.1,1.1-2.5,1.7-4.4,1.7c-1,0-2-0.2-3-0.7c-0.9-0.5-1.7-1.1-2.2-1.9l0.9-1c1.2,1.4,2.6,2.1,4.2,2.1
				c1.4,0,2.5-0.4,3.2-1.2c0.8-0.8,1.2-1.9,1.2-3.4v-1.9c-1.1,1.5-2.6,2.2-4.6,2.2c-1.7,0-3.1-0.7-4.2-2.1c-1-1.4-1.6-3.2-1.6-5.6
				V281.8z M566.1,282.1c0,1.9,0.4,3.4,1.1,4.5c0.8,1.1,1.8,1.6,3.2,1.6c2,0,3.5-0.9,4.3-2.7v-6.9c-0.4-1-0.9-1.7-1.7-2.2
				c-0.7-0.5-1.6-0.7-2.6-0.7c-1.4,0-2.5,0.5-3.2,1.6C566.5,278.4,566.1,280,566.1,282.1z"/>
			<path class="st0" d="M582.9,277c0.5-0.9,1.2-1.6,2.1-2.1c0.8-0.5,1.8-0.7,2.8-0.7c1.6,0,2.8,0.4,3.6,1.3s1.2,2.3,1.2,4v9.8h-1.6
				v-9.8c0-1.3-0.3-2.3-0.8-3c-0.6-0.7-1.4-1-2.7-1c-1,0-1.9,0.3-2.7,1c-0.8,0.6-1.4,1.5-1.7,2.6v10.2h-1.6v-21.2h1.6V277z"/>
			<path class="st0" d="M619.3,283.1c-0.2,2.1-1,3.7-2.3,4.8c-1.3,1.1-3,1.7-5.1,1.7c-1.5,0-2.8-0.4-3.9-1.1c-1.1-0.7-2-1.8-2.7-3.2
				c-0.6-1.4-0.9-2.9-1-4.7v-2.6c0-1.8,0.3-3.4,0.9-4.7c0.6-1.4,1.5-2.4,2.7-3.2c1.2-0.7,2.5-1.1,4-1.1c2.1,0,3.8,0.6,5.1,1.7
				c1.2,1.2,2,2.8,2.2,4.8h-1.7c-0.4-3.4-2.3-5.1-5.6-5.1c-1.8,0-3.3,0.7-4.3,2c-1.1,1.4-1.6,3.2-1.6,5.6v2.5c0,2.3,0.5,4.2,1.6,5.5
				c1,1.4,2.5,2.1,4.3,2.1c1.8,0,3.1-0.4,4-1.3c0.9-0.9,1.5-2.1,1.7-3.8H619.3z"/>
			<path class="st0" d="M622.7,281.7c0-1.4,0.3-2.7,0.8-3.9c0.6-1.1,1.3-2,2.4-2.7c1-0.6,2.2-1,3.4-1c2,0,3.6,0.7,4.8,2.1
				c1.2,1.4,1.8,3.2,1.8,5.5v0.3c0,1.4-0.3,2.7-0.8,3.9c-0.6,1.2-1.3,2-2.3,2.7s-2.2,0.9-3.5,0.9c-2,0-3.6-0.7-4.8-2.1
				c-1.2-1.4-1.9-3.2-1.9-5.5V281.7z M624.4,282.2c0,1.8,0.5,3.2,1.4,4.4c0.9,1.1,2.1,1.7,3.6,1.7c1.5,0,2.7-0.6,3.6-1.7
				c0.9-1.1,1.4-2.7,1.4-4.5v-0.3c0-1.1-0.2-2.2-0.6-3.1c-0.4-0.9-1-1.7-1.8-2.2c-0.8-0.5-1.6-0.8-2.6-0.8c-1.5,0-2.7,0.6-3.6,1.7
				c-0.9,1.2-1.4,2.7-1.4,4.5V282.2z"/>
			<path class="st0" d="M641.8,289.4h-1.7v-21.2h1.7V289.4z"/>
			<path class="st0" d="M646,281.7c0-1.4,0.3-2.7,0.8-3.9c0.6-1.1,1.3-2,2.4-2.7c1-0.6,2.2-1,3.4-1c2,0,3.6,0.7,4.8,2.1
				c1.2,1.4,1.8,3.2,1.8,5.5v0.3c0,1.4-0.3,2.7-0.8,3.9c-0.6,1.2-1.3,2-2.3,2.7s-2.2,0.9-3.5,0.9c-2,0-3.6-0.7-4.8-2.1
				c-1.2-1.4-1.9-3.2-1.9-5.5V281.7z M647.6,282.2c0,1.8,0.5,3.2,1.4,4.4c0.9,1.1,2.1,1.7,3.6,1.7c1.5,0,2.7-0.6,3.6-1.7
				c0.9-1.1,1.4-2.7,1.4-4.5v-0.3c0-1.1-0.2-2.2-0.6-3.1c-0.4-0.9-1-1.7-1.8-2.2c-0.8-0.5-1.6-0.8-2.6-0.8c-1.5,0-2.7,0.6-3.6,1.7
				c-0.9,1.2-1.4,2.7-1.4,4.5V282.2z"/>
			<path class="st0" d="M670.1,275.9c-0.3-0.1-0.7-0.1-1.1-0.1c-1,0-1.9,0.3-2.6,0.9c-0.7,0.6-1.2,1.4-1.5,2.5v10.2h-1.6v-14.9h1.6
				l0,2.4c0.9-1.8,2.3-2.6,4.2-2.6c0.5,0,0.8,0.1,1.1,0.2L670.1,275.9z"/>
		</g>
		<g>
			<path class="st0" d="M355.4,148.2h-12.9v35.1h-8.7v-35.1h-12.7v-7h34.3V148.2z"/>
			<path class="st0" d="M369.1,155.4c2.2-2.7,5-4,8.4-4c6.8,0,10.2,3.9,10.3,11.8v20h-8.4v-19.8c0-1.8-0.4-3.1-1.2-4
				c-0.8-0.9-2.1-1.3-3.8-1.3c-2.4,0-4.2,0.9-5.3,2.8v22.2h-8.4v-44.4h8.4V155.4z"/>
			<path class="st0" d="M409.7,183.9c-4.6,0-8.3-1.4-11.2-4.2c-2.9-2.8-4.3-6.6-4.3-11.3v-0.8c0-3.1,0.6-6,1.8-8.4
				c1.2-2.5,2.9-4.4,5.2-5.7c2.2-1.3,4.8-2,7.6-2c4.3,0,7.7,1.3,10.1,4c2.5,2.7,3.7,6.5,3.7,11.5v3.4h-19.9c0.3,2,1.1,3.7,2.4,4.9
				c1.4,1.2,3.1,1.9,5.2,1.9c3.2,0,5.7-1.2,7.5-3.5l4.1,4.6c-1.3,1.8-3,3.2-5.1,4.2C414.7,183.4,412.3,183.9,409.7,183.9z
				 M408.8,158.2c-1.7,0-3,0.6-4,1.7c-1,1.1-1.7,2.7-2,4.8h11.6V164c0-1.9-0.5-3.3-1.5-4.3S410.5,158.2,408.8,158.2z"/>
			<path class="st0" d="M332.4,233.4v14.8h-8.7v-42.1h16.4c3.2,0,5.9,0.6,8.3,1.7c2.4,1.2,4.2,2.8,5.5,4.9c1.3,2.1,1.9,4.6,1.9,7.3
				c0,4.1-1.4,7.4-4.2,9.8c-2.8,2.4-6.7,3.6-11.7,3.6H332.4z M332.4,226.3h7.8c2.3,0,4-0.5,5.3-1.6c1.2-1.1,1.8-2.6,1.8-4.6
				c0-2.1-0.6-3.7-1.8-5c-1.2-1.3-2.9-1.9-5-2h-8V226.3z"/>
			<path class="st0" d="M380.4,248.2c-0.4-0.8-0.7-1.7-0.8-2.8c-2,2.3-4.7,3.4-7.9,3.4c-3.1,0-5.6-0.9-7.6-2.7c-2-1.8-3-4-3-6.7
				c0-3.3,1.2-5.9,3.7-7.6c2.5-1.8,6-2.7,10.7-2.7h3.8v-1.8c0-1.4-0.4-2.6-1.1-3.5c-0.7-0.9-1.9-1.3-3.5-1.3c-1.4,0-2.5,0.3-3.3,1
				c-0.8,0.7-1.2,1.6-1.2,2.8h-8.4c0-1.8,0.6-3.5,1.7-5c1.1-1.5,2.7-2.8,4.7-3.6c2-0.9,4.3-1.3,6.9-1.3c3.9,0,6.9,1,9.2,2.9
				c2.3,1.9,3.4,4.7,3.4,8.2V241c0,3,0.4,5.2,1.2,6.7v0.5H380.4z M373.4,242.4c1.2,0,2.4-0.3,3.4-0.8c1-0.5,1.8-1.3,2.3-2.2V234H376
				c-4.2,0-6.4,1.4-6.7,4.3l0,0.5c0,1,0.4,1.9,1.1,2.6C371.2,242.1,372.2,242.4,373.4,242.4z"/>
			<path class="st0" d="M404,248.2h-8.4v-44.4h8.4V248.2z"/>
			<path class="st0" d="M426.5,248.8c-4.6,0-8.3-1.4-11.2-4.2c-2.9-2.8-4.3-6.6-4.3-11.3v-0.8c0-3.1,0.6-6,1.8-8.4
				c1.2-2.5,2.9-4.4,5.2-5.7c2.2-1.3,4.8-2,7.6-2c4.3,0,7.7,1.3,10.1,4c2.5,2.7,3.7,6.5,3.7,11.5v3.4h-19.9c0.3,2,1.1,3.7,2.4,4.9
				c1.4,1.2,3.1,1.9,5.2,1.9c3.2,0,5.7-1.2,7.5-3.5l4.1,4.6c-1.3,1.8-3,3.2-5.1,4.2C431.4,248.3,429.1,248.8,426.5,248.8z
				 M425.5,223.1c-1.7,0-3,0.6-4,1.7c-1,1.1-1.7,2.7-2,4.8h11.6v-0.7c0-1.9-0.5-3.3-1.5-4.3C428.7,223.6,427.3,223.1,425.5,223.1z"
				/>
			<path class="st0" d="M455.3,209.2v7.7h5.4v6.1h-5.4v15.6c0,1.2,0.2,2,0.7,2.5c0.4,0.5,1.3,0.8,2.5,0.8c0.9,0,1.7-0.1,2.5-0.2v6.3
				c-1.6,0.5-3.3,0.8-5.1,0.8c-5.9,0-8.9-3-9-8.9V223h-4.6v-6.1h4.6v-7.7H455.3z"/>
			<path class="st0" d="M473.7,209.2v7.7h5.4v6.1h-5.4v15.6c0,1.2,0.2,2,0.7,2.5c0.4,0.5,1.3,0.8,2.5,0.8c0.9,0,1.7-0.1,2.5-0.2v6.3
				c-1.6,0.5-3.3,0.8-5.1,0.8c-5.9,0-8.9-3-9-8.9V223h-4.6v-6.1h4.6v-7.7H473.7z"/>
			<path class="st0" d="M499.2,248.8c-4.6,0-8.3-1.4-11.2-4.2c-2.9-2.8-4.3-6.6-4.3-11.3v-0.8c0-3.1,0.6-6,1.8-8.4
				c1.2-2.5,2.9-4.4,5.2-5.7c2.2-1.3,4.8-2,7.6-2c4.3,0,7.7,1.3,10.1,4c2.5,2.7,3.7,6.5,3.7,11.5v3.4h-19.9c0.3,2,1.1,3.7,2.4,4.9
				c1.4,1.2,3.1,1.9,5.2,1.9c3.2,0,5.7-1.2,7.5-3.5l4.1,4.6c-1.3,1.8-3,3.2-5.1,4.2C504.2,248.3,501.9,248.8,499.2,248.8z
				 M498.3,223.1c-1.7,0-3,0.6-4,1.7c-1,1.1-1.7,2.7-2,4.8h11.6v-0.7c0-1.9-0.5-3.3-1.5-4.3C501.4,223.6,500.1,223.1,498.3,223.1z"
				/>
		</g>
	</g>
</g>
</svg>
