<?xml version="1.0" encoding="utf-8"?>
<!-- Generator: Adobe Illustrator 16.0.0, SVG Export Plug-In . SVG Version: 6.00 Build 0)  -->
<!DOCTYPE svg PUBLIC "-//W3C//DTD SVG 1.1//EN" "http://www.w3.org/Graphics/SVG/1.1/DTD/svg11.dtd">
<svg version="1.1" id="Capa_1" xmlns="http://www.w3.org/2000/svg" xmlns:xlink="http://www.w3.org/1999/xlink" x="0px" y="0px"
	 width="512px" height="512px" viewBox="2211.223 0 512 512" enable-background="new 2211.223 0 512 512" xml:space="preserve">
<g>
	<g>
		<path fill="#FFFFFF" d="M2457.315,510.262h-128.448c-25.729,0-46.661-20.934-46.661-46.662V232.49
			c0-25.729,20.932-46.66,46.661-46.66h128.448c25.729,0,46.66,20.932,46.66,46.66V463.6
			C2503.975,489.328,2483.044,510.262,2457.315,510.262z M2328.866,200.155c-17.83,0-32.336,14.506-32.336,32.335V463.6
			c0,17.83,14.506,32.336,32.336,32.336h128.448c17.829,0,32.334-14.506,32.334-32.336V232.49c0-17.829-14.505-32.335-32.334-32.335
			H2328.866z"/>
	</g>
	<g>
		<path fill="#FFFFFF" d="M2613.505,512h-149.471c-3.957,0-7.163-3.207-7.163-7.163s3.206-7.163,7.163-7.163h149.471
			c13.459,0,24.41-10.949,24.41-24.408v-179.56c0-13.459-10.951-24.408-24.41-24.408h-111.269c-3.956,0-7.163-3.207-7.163-7.163
			s3.207-7.163,7.163-7.163h111.269c21.359,0,38.735,17.376,38.735,38.734v179.56C2652.24,494.623,2634.865,512,2613.505,512z"/>
	</g>
	<g>
		<path fill="#FFFFFF" d="M2393.091,188.582c-3.957,0-7.163-3.207-7.163-7.163v-55.103c0-3.956,3.206-7.163,7.163-7.163
			c3.956,0,7.163,3.207,7.163,7.163v55.103C2400.254,185.375,2397.047,188.582,2393.091,188.582z"/>
	</g>
	<g>
		<path fill="#FFFFFF" d="M2393.091,161.031c-25.917,0-47.003-21.086-47.003-47.004c0-50.512,39.42-108.478,41.099-110.921
			c1.3-1.892,3.427-3.046,5.722-3.104c2.261-0.052,4.478,0.985,5.872,2.809c1.687,2.205,41.313,54.658,41.313,111.217
			C2440.094,139.945,2419.008,161.031,2393.091,161.031z M2393.343,20.15c-10.719,17.75-32.93,58.773-32.93,93.877
			c0,18.019,14.659,32.678,32.678,32.678s32.677-14.659,32.677-32.678C2425.768,75.045,2404.119,36.779,2393.343,20.15z"/>
	</g>
	<g>
		<path fill="#FFFFFF" d="M2559.071,264.158c-3.957,0-7.163-3.207-7.163-7.162v-42.315c0-3.956,3.206-7.163,7.163-7.163
			c3.956,0,7.162,3.207,7.162,7.163v42.315C2566.233,260.951,2563.027,264.158,2559.071,264.158z"/>
	</g>
	<g>
		<path fill="#FFFFFF" d="M2559.071,243c-20.819,0-37.757-16.938-37.757-37.758c0-39.299,30.552-84.228,31.853-86.121
			c1.299-1.892,3.427-3.046,5.721-3.104c2.251-0.052,4.479,0.985,5.872,2.809c1.31,1.712,32.069,42.427,32.069,86.417
			C2596.828,226.063,2579.89,243,2559.071,243z M2559.311,136.315c-8.526,14.495-23.671,43.781-23.671,68.927
			c0,12.921,10.511,23.432,23.431,23.432s23.433-10.511,23.433-23.432C2582.503,177.371,2567.828,149.908,2559.311,136.315z"/>
	</g>
</g>
</svg>
