<?xml version="1.0" encoding="utf-8"?>
<!-- Generator: Adobe Illustrator 16.0.0, SVG Export Plug-In . SVG Version: 6.00 Build 0)  -->
<!DOCTYPE svg PUBLIC "-//W3C//DTD SVG 1.1//EN" "http://www.w3.org/Graphics/SVG/1.1/DTD/svg11.dtd">
<svg version="1.1" id="Capa_1" xmlns="http://www.w3.org/2000/svg" xmlns:xlink="http://www.w3.org/1999/xlink" x="0px" y="0px"
	 width="512px" height="512px" viewBox="2766.278 0 512 512" enable-background="new 2766.278 0 512 512" xml:space="preserve">
<g>
	<path fill="none" stroke="#FFFFFF" stroke-width="11" stroke-linecap="round" stroke-linejoin="round" stroke-miterlimit="10" d="
		M3052.03,464.987c0,21.961-17.781,39.763-39.714,39.763h-129.154c-21.935,0-39.715-17.802-39.715-39.763V232.334
		c0-21.959,17.78-39.762,39.715-39.762h129.154c21.933,0,39.714,17.803,39.714,39.762V464.987z"/>
	<path fill="none" stroke="#FFFFFF" stroke-width="11" stroke-linecap="round" stroke-linejoin="round" stroke-miterlimit="10" d="
		M3057.484,262.176h111.879c17.533,0,31.746,14.229,31.746,31.782v180.76c0,17.552-14.213,31.782-31.746,31.782h-150.291"/>
	
		<line fill="none" stroke="#FFFFFF" stroke-width="11" stroke-linecap="round" stroke-linejoin="round" stroke-miterlimit="10" x1="2947.739" y1="125.45" x2="2947.739" y2="180.921"/>
	<path fill="none" stroke="#FFFFFF" stroke-width="11" stroke-linecap="round" stroke-linejoin="round" stroke-miterlimit="10" d="
		M2987.798,113.079c0,22.15-17.937,40.106-40.06,40.106c-22.124,0-40.059-17.956-40.059-40.106
		c0-49.196,40.059-107.579,40.059-107.579S2987.798,57.93,2987.798,113.079z"/>
	
		<line fill="none" stroke="#FFFFFF" stroke-width="11" stroke-linecap="round" stroke-linejoin="round" stroke-miterlimit="10" x1="3114.629" y1="214.404" x2="3114.629" y2="257.003"/>
	<path fill="none" stroke="#FFFFFF" stroke-width="11" stroke-linecap="round" stroke-linejoin="round" stroke-miterlimit="10" d="
		M3145.393,204.903c0,17.011-13.774,30.799-30.764,30.799s-30.762-13.788-30.762-30.799c0-37.778,30.762-82.613,30.762-82.613
		S3145.393,162.552,3145.393,204.903z"/>
</g>
</svg>
