<?xml version="1.0" encoding="utf-8"?>
<!-- Generator: Adobe Illustrator 16.0.0, SVG Export Plug-In . SVG Version: 6.00 Build 0)  -->
<!DOCTYPE svg PUBLIC "-//W3C//DTD SVG 1.1//EN" "http://www.w3.org/Graphics/SVG/1.1/DTD/svg11.dtd">
<svg version="1.1" id="Capa_1" xmlns="http://www.w3.org/2000/svg" xmlns:xlink="http://www.w3.org/1999/xlink" x="0px" y="0px"
	 width="512px" height="512px" viewBox="0 0 512 512" enable-background="new 0 0 512 512" xml:space="preserve">
<g>
	<path fill="none" stroke="#FFFFFF" stroke-width="11" stroke-linecap="round" stroke-linejoin="round" stroke-miterlimit="10" d="
		M457.147,145.314V60.915C457.147,30.033,432.215,5,401.455,5H110.545C79.786,5,54.852,30.033,54.852,60.915v84.399H457.147z"/>
	<path fill="none" stroke="#FFFFFF" stroke-width="11" stroke-linecap="round" stroke-linejoin="round" stroke-miterlimit="10" d="
		M104.05,290.514v198.077c0,10.166-8.209,18.409-18.336,18.409l0,0c-10.128,0-18.337-8.243-18.337-18.409V290.514"/>
	<path fill="none" stroke="#FFFFFF" stroke-width="11" stroke-linecap="round" stroke-linejoin="round" stroke-miterlimit="10" d="
		M439.082,290.514v198.077c0,10.166-8.209,18.409-18.336,18.409l0,0c-10.129,0-18.338-8.243-18.338-18.409V290.514"/>
	
		<line fill="none" stroke="#FFFFFF" stroke-width="11" stroke-linecap="round" stroke-linejoin="round" stroke-miterlimit="10" x1="80.566" y1="246.044" x2="80.566" y2="154.455"/>
	
		<line fill="none" stroke="#FFFFFF" stroke-width="11" stroke-linecap="round" stroke-linejoin="round" stroke-miterlimit="10" x1="113.941" y1="154.455" x2="113.941" y2="246.044"/>
	
		<line fill="none" stroke="#FFFFFF" stroke-width="11" stroke-linecap="round" stroke-linejoin="round" stroke-miterlimit="10" x1="396.035" y1="246.044" x2="396.035" y2="154.455"/>
	
		<line fill="none" stroke="#FFFFFF" stroke-width="11" stroke-linecap="round" stroke-linejoin="round" stroke-miterlimit="10" x1="429.41" y1="154.455" x2="429.41" y2="246.044"/>
	<path fill="none" stroke="#FFFFFF" stroke-width="11" stroke-linecap="round" stroke-linejoin="round" stroke-miterlimit="10" d="
		M478.549,271.976c0,10.238-8.268,18.538-18.465,18.538H51.915c-10.197,0-18.463-8.3-18.463-18.538l0,0
		c0-10.238,8.266-18.537,18.463-18.537h408.169C470.281,253.438,478.549,261.737,478.549,271.976L478.549,271.976z"/>
	
		<line fill="none" stroke="#FFFFFF" stroke-width="11" stroke-linecap="round" stroke-linejoin="round" stroke-miterlimit="10" x1="109.699" y1="334.319" x2="402.301" y2="334.319"/>
</g>
</svg>
