<?xml version="1.0" encoding="utf-8"?>
<!-- Generator: Adobe Illustrator 16.0.0, SVG Export Plug-In . SVG Version: 6.00 Build 0)  -->
<!DOCTYPE svg PUBLIC "-//W3C//DTD SVG 1.1//EN" "http://www.w3.org/Graphics/SVG/1.1/DTD/svg11.dtd">
<svg version="1.1" id="Capa_1" xmlns="http://www.w3.org/2000/svg" xmlns:xlink="http://www.w3.org/1999/xlink" x="0px" y="0px"
	 width="512px" height="512px" viewBox="1119.113 0 512 512" enable-background="new 1119.113 0 512 512" xml:space="preserve">
<g>
	<path fill="none" stroke="#FFFFFF" stroke-width="11" stroke-linecap="round" stroke-linejoin="round" stroke-miterlimit="10" d="
		M1183.262,169.593V80.868c0-32.463,26.376-58.78,58.912-58.78h265.876c32.537,0,58.913,26.317,58.913,58.78v88.725"/>
	
		<line fill="none" stroke="#FFFFFF" stroke-width="11" stroke-linecap="round" stroke-linejoin="round" stroke-miterlimit="10" x1="1247.052" y1="440.004" x2="1247.052" y2="489.912"/>
	
		<line fill="none" stroke="#FFFFFF" stroke-width="11" stroke-linecap="round" stroke-linejoin="round" stroke-miterlimit="10" x1="1505.376" y1="440.004" x2="1505.376" y2="489.912"/>
	<path fill="none" stroke="#FFFFFF" stroke-width="11" stroke-linecap="round" stroke-linejoin="round" stroke-miterlimit="10" d="
		M1511.564,332.168v-103.16c0-31.423,25.531-56.896,57.025-56.896l0,0c31.493,0,57.023,25.474,57.023,56.896v154.102
		c0,31.422-25.53,56.895-57.023,56.895l0,0h-386.953c-31.493,0-57.023-25.473-57.023-56.895V229.008
		c0-31.423,25.53-56.896,57.023-56.896l0,0c31.494,0,57.024,25.474,57.024,56.896v103.16H1511.564z"/>
	<ellipse fill="#FFFFFF" cx="1328.235" cy="136.722" rx="13.635" ry="13.603"/>
	<ellipse fill="#FFFFFF" cx="1425.229" cy="136.722" rx="13.634" ry="13.603"/>
	<ellipse fill="#FFFFFF" cx="1328.235" cy="216.83" rx="13.635" ry="13.604"/>
	<ellipse fill="#FFFFFF" cx="1425.229" cy="216.83" rx="13.634" ry="13.604"/>
</g>
</svg>
