<?xml version="1.0" encoding="utf-8"?>
<!-- Generator: Adobe Illustrator 16.0.0, SVG Export Plug-In . SVG Version: 6.00 Build 0)  -->
<!DOCTYPE svg PUBLIC "-//W3C//DTD SVG 1.1//EN" "http://www.w3.org/Graphics/SVG/1.1/DTD/svg11.dtd">
<svg version="1.1" id="Capa_1" xmlns="http://www.w3.org/2000/svg" xmlns:xlink="http://www.w3.org/1999/xlink" x="0px" y="0px"
	 width="512px" height="512px" viewBox="564.057 0 512 512" enable-background="new 564.057 0 512 512" xml:space="preserve">
<g>
	<ellipse fill="#FFFFFF" cx="820.057" cy="163.922" rx="13.875" ry="13.824"/>
	<path fill="none" stroke="#FFFFFF" stroke-width="11" stroke-linecap="round" stroke-linejoin="round" stroke-miterlimit="10" d="
		M1070.557,77.091c0,23.897-19.441,39.002-43.425,39.002H612.984c-23.983,0-43.427-15.104-43.427-39.002l0,0
		c0-23.896,19.443-39.002,43.427-39.002h414.148C1051.115,38.089,1070.557,53.195,1070.557,77.091L1070.557,77.091z"/>
	<path fill="none" stroke="#FFFFFF" stroke-width="11" stroke-linecap="round" stroke-linejoin="round" stroke-miterlimit="10" d="
		M647.323,117.481v338.634c0,9.828-7.996,17.795-17.859,17.795l0,0c-9.864,0-17.86-7.967-17.86-17.795V117.481"/>
	<path fill="none" stroke="#FFFFFF" stroke-width="11" stroke-linecap="round" stroke-linejoin="round" stroke-miterlimit="10" d="
		M1027.553,117.481v338.634c0,9.828-7.996,17.795-17.858,17.795l0,0c-9.865,0-17.861-7.967-17.861-17.795V117.481"/>
	
		<line fill="none" stroke="#FFFFFF" stroke-width="11" stroke-linecap="round" stroke-linejoin="round" stroke-miterlimit="10" x1="652.009" y1="226.878" x2="988.106" y2="226.878"/>
</g>
</svg>
