<?xml version="1.0" encoding="utf-8"?>
<!-- Generator: Adobe Illustrator 22.1.0, SVG Export Plug-In . SVG Version: 6.00 Build 0)  -->
<svg version="1.1" id="圖層_1" xmlns="http://www.w3.org/2000/svg" xmlns:xlink="http://www.w3.org/1999/xlink" x="0px" y="0px"
	 viewBox="0 0 40 20" style="enable-background:new 0 0 40 20;" xml:space="preserve">
<style type="text/css">
	.st0{fill:#FFFFFF;}
</style>
<g>
	<g>
		<path class="st0" d="M1.3,2.6h37.3c0.7,0,1.2-0.6,1.2-1.2c0-0.7-0.6-1.2-1.2-1.2H1.3c-0.7,0-1.2,0.6-1.2,1.2S0.6,2.6,1.3,2.6z
			 M38.6,8.8H1.3c-0.7,0-1.2,0.6-1.2,1.2s0.6,1.2,1.2,1.2h37.3c0.7,0,1.2-0.6,1.2-1.2S39.3,8.8,38.6,8.8z M38.6,17.4H13.7
			c-0.7,0-1.2,0.6-1.2,1.2c0,0.7,0.6,1.2,1.2,1.2h24.9c0.7,0,1.2-0.6,1.2-1.2C39.8,18,39.3,17.4,38.6,17.4z"/>
	</g>
</g>
</svg>
