<?xml version="1.0" encoding="utf-8"?>
<!-- Generator: Adobe Illustrator 22.1.0, SVG Export Plug-In . SVG Version: 6.00 Build 0)  -->
<svg version="1.1" id="Capa_1" xmlns="http://www.w3.org/2000/svg" xmlns:xlink="http://www.w3.org/1999/xlink" x="0px" y="0px"
	 viewBox="0 0 482.8 482.8" style="enable-background:new 0 0 482.8 482.8;" xml:space="preserve">
<style type="text/css">
	.st0{fill:#FFFFFF;}
</style>
<path class="st0" d="M396,210.4h-7.1v-62.9C388.9,66.2,322.8,0,241.4,0C160.1,0,93.9,66.1,93.9,147.5c0,7.5,6,13.5,13.5,13.5
	s13.5-6,13.5-13.5c0-66.4,54-120.5,120.5-120.5c66.4,0,120.5,54,120.5,120.5v62.9h-275c-14.4,0-26.1,11.7-26.1,26.1v168.1
	c0,43.1,35.1,78.2,78.2,78.2h204.9c43.1,0,78.2-35.1,78.2-78.2V236.5C422,222.1,410.4,210.4,396,210.4z M395,404.6
	c0,28.2-22.9,51.2-51.2,51.2H139c-28.2,0-51.2-22.9-51.2-51.2V237.4H395V404.6L395,404.6z"/>
<path class="st0" d="M241.4,399.1c27.9,0,50.5-22.7,50.5-50.5c0-27.9-22.7-50.5-50.5-50.5c-27.9,0-50.5,22.7-50.5,50.5
	S213.6,399.1,241.4,399.1z M241.4,325c13,0,23.5,10.6,23.5,23.5s-10.5,23.6-23.5,23.6S218,361.5,218,348.6S228.4,325,241.4,325z"/>
<path class="st0" d="M120.9,210.5v-62.9c0-66.5,54.1-120.5,120.5-120.5c66.5,0,120.5,54.1,120.5,120.5c0,7.5,6,13.5,13.5,13.5
	s13.5-6,13.5-13.5c0-81.4-66.2-147.5-147.5-147.5C160,0.1,93.9,66.3,93.9,147.6v62.9H120.9z"/>
</svg>
