<?xml version="1.0" encoding="utf-8"?>
<!-- Generator: Adobe Illustrator 22.1.0, SVG Export Plug-In . SVG Version: 6.00 Build 0)  -->
<svg version="1.1" id="Capa_1" xmlns="http://www.w3.org/2000/svg" xmlns:xlink="http://www.w3.org/1999/xlink" x="0px" y="0px"
	 viewBox="0 0 512 512" style="enable-background:new 0 0 512 512;" xml:space="preserve">
<style type="text/css">
	.st0{fill:#FFFFFF;}
	.st1{fill:none;stroke:#FFFFFF;stroke-width:25;stroke-linecap:round;stroke-linejoin:round;stroke-miterlimit:10;}
</style>
<path class="st0" d="M437,75C388.6,26.6,324.4,0,256,0S123.4,26.6,75,75S0,187.6,0,256s26.6,132.6,75,181s112.6,75,181,75
	s132.6-26.6,181-75s75-112.6,75-181S485.4,123.4,437,75z M416.4,416.4c-42.9,42.9-99.9,66.5-160.4,66.5s-117.5-23.6-160.4-66.5
	C7.1,328,7.1,184,95.6,95.6c42.9-42.9,99.9-66.5,160.4-66.5s117.5,23.6,160.4,66.5C504.9,184,504.9,328,416.4,416.4z"/>
<polygon class="st1" points="353.3,256 220.1,138.4 220.1,373.6 "/>
</svg>
