<?xml version="1.0" encoding="utf-8"?>
<!-- Generator: Adobe Illustrator 22.1.0, SVG Export Plug-In . SVG Version: 6.00 Build 0)  -->
<svg version="1.1" id="圖層_1" xmlns="http://www.w3.org/2000/svg" xmlns:xlink="http://www.w3.org/1999/xlink" x="0px" y="0px"
	 viewBox="0 0 40 40" style="enable-background:new 0 0 40 40;" xml:space="preserve">
<style type="text/css">
	.st0{fill:#FFFFFF;}
</style>
<path class="st0" d="M39.4,37.8l-9.6-9.6c2.6-3,4.1-6.8,4.1-11.1c0-9.3-7.6-16.9-16.9-16.9C7.7,0.2,0.1,7.8,0.1,17.1
	C0.1,26.4,7.7,34,17,34c4.2,0,8.1-1.6,11.1-4.1l9.6,9.6c0.2,0.2,0.5,0.4,0.8,0.4c0.3,0,0.6-0.1,0.8-0.4C39.8,39,39.8,38.2,39.4,37.8
	z M2.5,17.1C2.5,9.1,9,2.6,17,2.6c8,0,14.5,6.5,14.5,14.5c0,8-6.5,14.5-14.5,14.5C9,31.6,2.5,25.1,2.5,17.1z"/>
</svg>
