<?xml version="1.0" encoding="utf-8"?>
<!-- Generator: Adobe Illustrator 22.1.0, SVG Export Plug-In . SVG Version: 6.00 Build 0)  -->
<svg version="1.1" id="Capa_1" xmlns="http://www.w3.org/2000/svg" xmlns:xlink="http://www.w3.org/1999/xlink" x="0px" y="0px"
	 viewBox="0 0 2575.4 487.2" style="enable-background:new 0 0 2575.4 487.2;" xml:space="preserve">
<style type="text/css">
	.st0{fill:#FFFFFF;}
</style>
<g>
	<path d="M486.6,186.8c-1.6-4.9-5.8-8.4-10.9-9.2l-152-21.6L255.3,18.5c-2.3-4.6-7-7.5-12.1-7.5l0,0c-5.1,0-9.8,2.9-12.1,7.6
		l-67.5,137.9l-152,22.6c-5.1,0.8-9.3,4.3-10.9,9.2s-0.2,10.3,3.5,13.8L114.5,309L89,460.4c-0.9,5.1,1.2,10.2,5.4,13.2
		c2.3,1.7,5.1,2.6,7.9,2.6c2.2,0,4.3-0.5,6.3-1.6l135.7-71.9l136.1,71.1c2,1,4.1,1.5,6.2,1.5l0,0c7.4,0,13.5-6.1,13.5-13.5
		c0-1.1-0.1-2.1-0.4-3.1l-26.3-150.5L483,200.7C486.9,197.1,488.2,191.7,486.6,186.8z"/>
</g>
<g>
	<path d="M1008.6,186.8c-1.6-4.9-5.8-8.4-10.9-9.2l-152-21.6L777.3,18.5c-2.3-4.6-7-7.5-12.1-7.5l0,0c-5.1,0-9.8,2.9-12.1,7.6
		l-67.5,137.9l-152,22.6c-5.1,0.8-9.3,4.3-10.9,9.2c-1.6,4.9-0.2,10.3,3.5,13.8L636.5,309L611,460.4c-0.9,5.1,1.2,10.2,5.4,13.2
		c2.3,1.7,5.1,2.6,7.9,2.6c2.2,0,4.3-0.5,6.3-1.6l135.7-71.9l136.1,71.1c2,1,4.1,1.5,6.2,1.5l0,0c7.4,0,13.5-6.1,13.5-13.5
		c0-1.1-0.1-2.1-0.4-3.1l-26.3-150.5L1005,200.7C1008.9,197.1,1010.2,191.7,1008.6,186.8z"/>
</g>
<g>
	<path d="M1530.7,186.8c-1.6-4.9-5.8-8.4-10.9-9.2l-152-21.6l-68.4-137.5c-2.3-4.6-7-7.5-12.1-7.5l0,0c-5.1,0-9.8,2.9-12.1,7.6
		l-67.5,137.9l-152,22.6c-5.1,0.8-9.3,4.3-10.9,9.2c-1.6,4.9-0.2,10.3,3.5,13.8L1158.6,309l-25.5,151.4c-0.9,5.1,1.2,10.2,5.4,13.2
		c2.3,1.7,5.1,2.6,7.9,2.6c2.2,0,4.3-0.5,6.3-1.6l135.7-71.9l136.1,71.1c2,1,4.1,1.5,6.2,1.5l0,0c7.4,0,13.5-6.1,13.5-13.5
		c0-1.1-0.1-2.1-0.4-3.1l-26.3-150.5l109.6-107.5C1531,197.1,1532.3,191.7,1530.7,186.8z"/>
</g>
<g>
	<path d="M2052.7,186.8c-1.6-4.9-5.8-8.4-10.9-9.2l-152-21.6l-68.4-137.5c-2.3-4.6-7-7.5-12.1-7.5l0,0c-5.1,0-9.8,2.9-12.1,7.6
		l-67.5,137.9l-152,22.6c-5.1,0.8-9.3,4.3-10.9,9.2s-0.2,10.3,3.5,13.8L1680.6,309l-25.5,151.4c-0.9,5.1,1.2,10.2,5.4,13.2
		c2.3,1.7,5.1,2.6,7.9,2.6c2.2,0,4.3-0.5,6.3-1.6l135.7-71.9l136.1,71.1c2,1,4.1,1.5,6.2,1.5l0,0c7.4,0,13.5-6.1,13.5-13.5
		c0-1.1-0.1-2.1-0.4-3.1l-26.3-150.5l109.6-107.5C2053,197.1,2054.3,191.7,2052.7,186.8z"/>
</g>
<g>
	<path d="M2574.8,186.8c-1.6-4.9-5.8-8.4-10.9-9.2l-152-21.6l-68.4-137.5c-2.3-4.6-7-7.5-12.1-7.5l0,0c-5.1,0-9.8,2.9-12.1,7.6
		l-67.5,137.9l-152,22.6c-5.1,0.8-9.3,4.3-10.9,9.2c-1.6,4.9-0.2,10.3,3.5,13.8L2202.7,309l-25.5,151.4c-0.9,5.1,1.2,10.2,5.4,13.2
		c2.3,1.7,5.1,2.6,7.9,2.6c2.2,0,4.3-0.5,6.3-1.6l135.7-71.9l136.1,71.1c2,1,4.1,1.5,6.2,1.5l0,0c7.4,0,13.5-6.1,13.5-13.5
		c0-1.1-0.1-2.1-0.4-3.1l-26.3-150.5l109.6-107.5C2575.1,197.1,2576.4,191.7,2574.8,186.8z"/>
</g>
<polygon class="st0" points="2332.7,370.7 2455.2,434.7 2431.4,298.4 2530.3,201.4 2393.4,182 2331.8,58.1 "/>
</svg>
